<?xml version="1.0" encoding="utf-8"?>
<!-- Generator: Adobe Illustrator 24.0.1, SVG Export Plug-In . SVG Version: 6.00 Build 0)  -->
<svg version="1.1" id="back" xmlns="http://www.w3.org/2000/svg" xmlns:xlink="http://www.w3.org/1999/xlink" x="0px" y="0px"
	 viewBox="0 0 224 97.9" style="enable-background:new 0 0 224 97.9;" xml:space="preserve">
<style type="text/css">
	.st0{fill-rule:evenodd;clip-rule:evenodd;fill:#37A8DB;}
	.st1{fill-rule:evenodd;clip-rule:evenodd;fill:#E1007A;}
	.st2{fill-rule:evenodd;clip-rule:evenodd;fill:#040513;}
	.st3{fill-rule:evenodd;clip-rule:evenodd;fill:#C10063;}
	.st4{fill-rule:evenodd;clip-rule:evenodd;fill:#E5418C;}
	.st5{fill-rule:evenodd;clip-rule:evenodd;fill:#FFFFFF;}
	.st6{fill-rule:evenodd;clip-rule:evenodd;fill:#E42C86;}
	.st7{fill-rule:evenodd;clip-rule:evenodd;}
	.st8{fill-rule:evenodd;clip-rule:evenodd;fill:#1FA12E;}
	.st9{fill-rule:evenodd;clip-rule:evenodd;fill:#009C30;}
	.st10{fill-rule:evenodd;clip-rule:evenodd;fill:#008FD3;}
	.st11{fill-rule:evenodd;clip-rule:evenodd;fill:#3A6DAF;}
</style>
<g id="Warstwa_10">
	<g>
		<g>
			<path class="st0" d="M161.9,36.8c2.6-1.6,4.9-3.8,7.5-5.5c0.7,0.5,1,1.3,1.6,1.8c-3.2,1.6-6.5,2.8-9.7,4.5
				c1.8-4,4.2-8.3,6.4-12.6c1,1.5,1.4,3.3,2.4,4.8C167.5,32.2,164.7,34.5,161.9,36.8z"/>
		</g>
		<g>
			<path class="st1" d="M99.3,26.1c0.3,0,0.5,0,0.8,0c4.7,0.4,4.8,7.3,0.4,8.1c-2.2,0.4-4.8-1.1-4.9-4C95.6,28,97.3,26.4,99.3,26.1z
				"/>
			<g>
				<path class="st1" d="M90.1,33.7c-0.2,1.6-0.4,3.2-0.6,4.9c-0.6-0.1-1.1-0.3-1.6-0.4c-0.5,6.6-0.8,13.4-1.2,20.1
					c0.9,0.1,2.2-0.2,3.3-0.2c-0.1,1.6-0.2,3.1-0.4,4.6c-2.2-0.3-4.7-0.5-6.9-0.8c0.3-5.5,0.5-11,0.8-16.4
					c-2.6,5.4-5.1,10.9-7.7,16.4c-2.6-4.9-5-10-7.4-15.1c-0.1,4.7,0.3,9.7,0.3,14.6c-1.9,0.1-3.8,0.2-5.6,0.2c0-1.5,0-3.1,0-4.6
					c0.8-0.2,1.6-0.4,2.6-0.5c-0.5-5.3-1.2-10.5-1.7-15.8c-0.8,0-1.7,0-2.1-0.1c-0.1-0.3-0.7-4.5-0.6-5c1.6-0.4,3.4-0.5,5.1-0.8
					c3,5.5,6.1,10.9,9.1,16.4c2.8-5.7,5.1-11.9,7.8-17.5C85.6,33.6,88,33.6,90.1,33.7z"/>
				<path class="st1" d="M109.2,59.4c0,0.1,0,0.3,0,0.4c-5.3,0.6-10.7,1.2-15,2.8c-0.2-1.6-0.4-3.1-0.6-4.6c1.7-0.6,3.3-1.4,5.1-1.9
					c-0.6-4.7-1.1-9.4-1.6-14.1c-1.9,0.2-3.7,0.6-5.6,1c-0.1-1.4,0.3-3.1,0.3-4.7c5.3-1.2,10.8-2.2,16.3-3.3
					c0.2,2.1,0.5,4.1,0.6,6.2c-1.8,0.2-3.7,0.3-5.5,0.5c0,4.7,0.2,9.1,0.2,13.7c1.5,0.3,3.4,0.2,5.1,0.2
					C108.9,56.8,109,58.2,109.2,59.4z"/>
				<path class="st1" d="M47,63.3c-0.2-1.3-0.4-2.4-0.5-3.8c0.6-0.2,1.1-0.5,1.8-0.6c-1.1-4.6-2.1-9.2-3.2-13.8
					c-0.5-0.1-0.9,0.1-1.4,0.1c-0.3-1.5-0.8-2.9-1.1-4.4c5.3-1.5,10.4-3.1,15.7-4.6c0.2,1.9,0.4,3.9,0.6,5.8
					c-0.7,0.2-1.3,0.5-2.1,0.6c-0.2-0.6-0.1-1.3-0.3-1.9c-2.3,0.6-4.1,1.7-6.2,2.5c0.4,1.8,1,3.6,1.5,5.3c1.3-0.3,2.6-0.7,3.9-1
					c0.2,1.3,0.6,2.6,0.7,4c-1.3,0.1-2.5,0.3-3.7,0.5c0.2,1.9,0.8,3.9,0.8,5.7c1.5-0.4,3-0.7,4.7-0.9c0-1.1,0.1-2,0.1-3.1
					c0.8-0.2,1.8-0.2,2.8-0.2c0.1,2.6,0.3,4.6,0.4,7.2c-5.3,0.3-9.9,1.4-14.3,2.7C47.1,63.3,47,63.3,47,63.3z"/>
			</g>
		</g>
		<g>
			<g>
				<path class="st2" d="M54.6,67c0.2,0.3-0.1,0.6-0.3,0.8c-0.3,0.1-0.3-0.2-0.4-0.3C54,67.2,54.2,67,54.6,67z"/>
				<path class="st2" d="M54.6,68c-0.2,0.9-0.3,1.8-0.5,2.6c0.1,0.2,0.6-0.2,0.6,0.2c-0.1,0.4-1,0.4-1.3,0.2
					c0.1-0.9,0.4-1.6,0.5-2.4c-0.2-0.2-0.5,0.1-0.9,0C53.4,68.1,54,68,54.6,68z"/>
			</g>
			<g>
				<path class="st2" d="M57.9,64.1c0.1,0,0.3,0,0.4,0c2.1,0.5,4.9,0.1,6.9,0.6c-0.4,0.3,0.2,1.5-0.6,1.5c-0.2-0.3-0.1-1-0.5-1.1
					c-0.7-0.2-1.8-0.2-2.5-0.2c0.3,1.5-0.8,4.8-0.2,6.1c0.2,0.5,0.8,0.3,1,0.8c-0.8,0.1-2.2,0.2-2.7-0.3c0-0.4,0.9,0.1,0.9-0.3
					c0.5-1.8,0.4-4.1,0.6-6.2c-0.8-0.1-1.7-0.1-2.6-0.2c-0.5,0-0.1,1-0.8,0.8C57.7,65.2,57.7,64.3,57.9,64.1z"/>
				<path class="st2" d="M67.1,71.5c0,0.2,0.4,0.1,0.5,0.2c-0.2,0.4-0.8,0.4-1.4,0.3c-0.1-0.4,0.3-0.4,0.4-0.6
					c-1.1,0.6-3.6,0.1-2.9-1.8c0.5-0.7,2-1.2,3.1-0.6c-0.1-1.5-1.9-0.8-2.7-0.4c0.2-0.9,1.1-1.1,2.3-1
					C67.9,68.2,67.2,69.8,67.1,71.5z M66.7,70.2c-0.1-0.9-1.4-1.5-2.1-0.7c-0.2,0.6,0,1.3,0.2,1.7C65.8,71.6,66.7,71.1,66.7,70.2z"
					/>
				<path class="st2" d="M70.5,68.1c0.1,0.5-0.4,0.8-0.7,0.6C69.7,68.2,70,68,70.5,68.1z"/>
				<path class="st2" d="M73.2,68.3c-0.1,0.3-0.6,0.2-0.5,0.7c0.4-0.2,1.6-1,2.2-0.2c0.2,0.9-0.1,1.9-0.1,2.8c0,0.1,0.4-0.1,0.6,0
					c-0.2,0.5-0.7,0.8-1.3,0.9c-0.1-1.2,0.6-2.6-0.1-3.5c-1.4-0.1-1.6,1.2-1.5,2.6c0.1,0.2,0.7,0,0.6,0.4c-0.4,0.2-1.6,0.4-1.9,0
					c0-0.3,0.4-0.3,0.6-0.3c0.2-0.9-0.1-2,0.1-3c-0.3-0.2-0.8,0-1.2-0.1C71.1,68,72.4,68.4,73.2,68.3z"/>
				<path class="st2" d="M77.8,69c0.1,0.3-0.4,0.1-0.6,0.2c0.1,1.4-0.3,2.7,0.9,2.8c1-0.3,0.3-1.8,0.6-2.8c0-0.2-0.4-0.1-0.4-0.2
					c0.1-0.3,0.9-0.2,1.1-0.1c-0.5,1.6,0.2,3.7-0.2,5.3c-0.9,0.7-2.9,0.3-2.3-1.2c0.2,0,0.3,0,0.5,0c0.2,0.2-0.1,0.4-0.2,0.6
					c0.4,0.2,0.7,0.5,1.1,0.6c0.4-0.4,0.7-1,0.6-1.9c-0.1-0.1-0.4,0.3-0.6,0.3c-1.9,0.1-1.4-2.1-1.5-3.4c-0.1-0.2-0.4-0.1-0.5-0.2
					C76.5,68.6,77.3,68.8,77.8,69z"/>
				<path class="st2" d="M70.3,69c-0.2,1.8,0.3,4.3-0.5,5.6c-2,0.7-1.7-1.3-1.9-2.4c0.6,0,0.9,0.3,1,0.7c-0.6-0.1-0.2,0.6-0.3,1
					c0.2,0.2,0.7,0.1,1,0c0.2-1.3,0.3-2.8,0.4-4.3c-0.2-0.1-0.4,0.3-0.9,0.2C69.2,69.3,69.6,69,70.3,69z"/>
			</g>
			<g>
				<path class="st2" d="M83,66.3c1.1,0.1,2,0.2,3.1,0.2c-0.1,0.5-0.8,0.3-1.2,0.5c-0.2,0.8,0,2-0.2,2.8c1.1-0.9,2.6-1.5,3.5-2.7
					c0.1-0.4-0.5-0.1-0.4-0.5c0.7,0.1,1.6-0.1,2.1,0.2c-1.5,0.8-2.6,1.9-4,2.7c1.1,1.5,1.9,3.3,3.6,4.1c-0.3,0.5-1.8,0.2-2.3,0
					c0-0.3,0.3-0.3,0.6-0.3c-0.8-1.1-1.7-2.1-2.3-3.5c-0.4,0.2-0.7,0.3-0.9,0.6c0,1.2-0.4,2.7,0.8,2.9c-0.6,0.4-2,0.1-2.7,0
					c0.2-0.3,0.4-0.6,1-0.5c0.6-1.7,0.4-4.1,0.5-6.1C83.9,66.7,83.2,66.8,83,66.3z"/>
				<path class="st2" d="M91.5,66.8c-0.3,2.1-0.6,4.1-0.6,6.4c0.2,0.2,0.5-0.2,0.9-0.2c-0.2,0.6-0.9,0.7-1.5,0.9
					c0-2.2,0.6-4.5,0.8-6.8c-0.4,0-0.7,0.2-1.1,0C90.1,66.6,90.9,66.9,91.5,66.8z"/>
				<path class="st2" d="M94.3,70.5c-0.1,0.2-0.3,0.4-0.6,0.3c0.1,0.9-0.2,2.2,0.2,2.7c1.6,0.3,1.4-2.2,0.9-3.1
					c0.4,0,1.1-0.1,1.4,0.1c0,0.3-0.4,0.2-0.5,0.3c0.1,0.9-0.1,1.5-0.1,2.4c0.2,0.1,0.5-0.2,0.7,0.1c-0.1,0.4-0.6,0.4-0.8,0.6
					c-0.6-0.2-0.8,0.1-1.4,0c-1.4-0.2-1.3-1.5-1.1-3.2c-0.1-0.3-0.7,0-0.7-0.3C93.2,70.4,93.6,70.1,94.3,70.5z"/>
				<path class="st2" d="M98.4,68.4c-0.1,1.1-0.2,2.2-0.3,3.2c0.5-0.2,2.2-0.5,2.7,0.2c0.7,1.7-1,3.2-2.7,2.3
					c-0.2,0.1,0.2,0.1,0.1,0.3c-0.8-0.1-1.4,0.1-1.9-0.2c0-0.3,0.5-0.2,0.6-0.4c0.3-1.6,0.7-3.1,0.8-4.9c0-0.4-0.8,0-0.8-0.3
					C97.1,68,98.1,68.4,98.4,68.4z M100.5,73.1c0.1-1-1.1-1.7-2-1.1c-0.3,0.5-0.1,1.2,0.1,1.6C99.3,74.2,100.4,73.9,100.5,73.1z"/>
			</g>
			<g>
				<path class="st2" d="M72.2,75.9c-0.1,0.3-0.8,0-1,0.2c0.2,1.7-0.3,3.3-0.2,5.3c0.1,0.2,0.6,0,0.7,0.2c-0.2,0.1,0.1,0.2,0,0.5
					c-0.6,0-1.1,0-1.7-0.1c-0.1-0.4,0.4-0.2,0.3-0.6c-1.3,0.4-3.5,0-2.9-1.9c0.6-0.6,1.8-1.2,3-0.7c0.1-0.8,0.4-2.4-0.1-3
					C70.9,75.3,71.7,75.8,72.2,75.9z M68.6,81c0.7,0.6,1.7,0,1.9-0.6c0.2-0.9-0.9-1.3-1.3-1.3C68.1,79.1,68,80.4,68.6,81z"/>
				<path class="st2" d="M53,77.3c-0.1,0.2-0.3,0.4-0.6,0.3c0.1,0.9-0.2,2.2,0.2,2.7c1.6,0.3,1.4-2.2,0.9-3.1c0.4,0,1.1-0.1,1.4,0.1
					c0,0.3-0.4,0.2-0.5,0.3c0.1,0.9-0.1,1.5-0.1,2.4c0.2,0.1,0.5-0.2,0.7,0.1c-0.1,0.4-0.6,0.4-0.8,0.6c-0.6-0.2-0.8,0.1-1.4,0
					c-1.4-0.2-1.3-1.5-1.1-3.2c-0.1-0.3-0.7,0-0.7-0.3C51.9,77.2,52.3,76.9,53,77.3z"/>
				<path class="st2" d="M65.8,77.6c-0.3,0.3-0.3,0.9-0.5,1.3c0.5,0,0.7-1.3,1.3-1.3c0.8,0,1,1.7,0,1.9c-0.3,0-0.3-0.4-0.4-0.6
					c-0.4,0.7-1.1,1.1-1.1,2.3c0.2,0.3,0.8,0.2,0.8,0.7c-0.7-0.1-1.5,0-2.1-0.2c0.9-0.6,0.9-2.1,1-3.5c-0.1-0.2-0.7,0.1-0.8-0.2
					C64.3,77.5,65.2,77.5,65.8,77.6z M66.4,78.5c0.1,0,0.2,0,0.3,0c0-0.2,0-0.3-0.2-0.3C66.6,78.3,66.4,78.3,66.4,78.5z"/>
				<path class="st2" d="M56.5,77.7c0.2,0.3-0.1,0.5,0,0.9c0.7-0.3,2-0.3,2.6,0.2c0.4,1.5-0.3,2.8-2,2.5c-0.3,0-0.5-0.2-0.8-0.3
					c-0.2,1.3-0.2,2.5-0.5,3.7c0.2,0.2,0.5,0.2,0.9,0.2c0.1,0.3,0,0.3,0.1,0.6c-0.5-0.3-1.7,0.1-2-0.4c1.2-1.4,0.7-4.6,1.2-6.7
					c-0.1-0.1-0.4,0.2-0.7,0.1C55.5,78,56,77.8,56.5,77.7z M57,80.7c0.6,0.4,1.7,0.1,1.8-0.6c0.2-1-0.8-1.4-1.5-1.3
					C56.3,79,56.3,80.3,57,80.7z"/>
				<path class="st2" d="M63.3,79.5c-0.8,0.2-1.9,0.4-2.7,0.6c0,0.7,1.1,0.9,1.6,0.6c0.2-0.2-0.1-0.2-0.1-0.4
					c0.5,0.1,1.2-0.1,1.4,0.2c-1.1,0.9-3,1.2-3.9-0.2c0.2-0.3,0.1-0.6,0.2-1.1c0.5-0.8,1.9-1.2,3.1-0.7C62.9,78.8,63.3,79,63.3,79.5
					z M60.4,79.9c0.6-0.3,1.5-0.3,1.9-0.7C61.8,78.5,60.2,78.5,60.4,79.9z"/>
				<path class="st2" d="M76.2,78.7c-0.8,1.1-2.1,1.8-3,2.7c0.6,0.2,1.3-0.1,2.1,0c0.2-0.1,0-0.7,0.5-0.6c0.3,0.2,0.2,0.9,0.2,1.1
					c-1.3,0.2-2.6-0.2-4-0.1c0.1-0.8,0.9-1.2,1.5-1.6c0.6-0.4,1.2-0.8,1.7-1.4c-1.1-0.2-1.9,0-2.7,0.2
					C72.6,77.7,74.9,78.8,76.2,78.7z"/>
				<path class="st2" d="M78,78.3c0.2,0.3-0.1,0.6-0.3,0.8c-0.3,0.1-0.3-0.2-0.4-0.3C77.3,78.5,77.5,78.3,78,78.3z"/>
				<path class="st2" d="M84.8,79.1c0,0.4-0.4,0.5-0.8,0.5c0.1,0.7,0.2,1.4,0.3,2.1c0.5-0.9,1-1.7,1.2-2.8c1,0.3,0.5,1.8,1,2.7
					c0.4-0.5,0.4-1.4,0.8-1.9c0-0.2-0.4-0.1-0.6-0.2c0-0.3,0.2-0.2,0.2-0.5c0.8,0.1,1.5,0.3,1.9,0.8c-0.2,0.2-0.5,0.1-0.6,0
					c-0.6,0.9-0.8,2.3-1.4,3.2c-0.4,0.1-0.2-0.6-0.7-0.4c-0.1-0.8-0.2-1.5-0.2-2.3c-0.6,0.7-0.8,1.9-1.4,2.6
					c-0.2,0.1-0.2-0.1-0.4-0.1c-0.3-1-0.4-2.2-0.6-3.2c-0.1-0.2-0.7,0-0.6-0.4C83.8,79,83.8,79,84.8,79.1z"/>
				<path class="st2" d="M78,79.3c-0.2,0.9-0.3,1.8-0.5,2.6c0.1,0.2,0.6-0.2,0.6,0.2c-0.1,0.4-1,0.4-1.3,0.2
					c0.1-0.9,0.4-1.6,0.5-2.4c-0.2-0.2-0.5,0.1-0.9,0C76.7,79.4,77.3,79.3,78,79.3z"/>
				<path class="st2" d="M82.3,80.6c-0.8,0.2-1.9,0.4-2.8,0.6c0,0.7,1.1,0.9,1.6,0.6c0.2-0.2-0.1-0.2-0.1-0.4
					c0.5,0.1,1.2-0.1,1.4,0.2c-1.1,0.9-3,1.2-3.9-0.2c0.2-0.3,0.1-0.6,0.2-1.1c0.5-0.8,1.9-1.2,3.1-0.7C81.9,80,82.3,80.1,82.3,80.6
					z M79.4,81c0.6-0.3,1.5-0.3,1.9-0.7C80.8,79.6,79.2,79.6,79.4,81z"/>
				<path class="st2" d="M96.5,79.9c-0.8,1.1-2.1,1.8-3,2.7c0.6,0.2,1.3-0.1,2.1,0c0.2-0.1,0-0.7,0.5-0.6c0.3,0.2,0.2,0.9,0.2,1.1
					c-1.3,0.2-2.6-0.2-4-0.1c0.1-0.8,0.9-1.2,1.5-1.6c0.6-0.4,1.2-0.8,1.7-1.4c-1.1-0.2-1.9,0-2.7,0.2C92.9,78.9,95.2,80,96.5,79.9z
					"/>
				<path class="st2" d="M98.7,80.1c0.1,0.3-0.4,0.1-0.6,0.2c0.1,1.4-0.3,2.7,0.9,2.8c1-0.3,0.3-1.8,0.6-2.8c0-0.2-0.4-0.1-0.4-0.2
					c0.1-0.3,0.9-0.2,1.1-0.1c-0.5,1.6,0.2,3.7-0.2,5.3c-0.9,0.7-2.9,0.3-2.3-1.2c0.2,0,0.3,0,0.5,0c0.2,0.2-0.1,0.4-0.2,0.6
					c0.4,0.2,0.7,0.5,1.1,0.6c0.4-0.4,0.7-1,0.6-1.9c-0.1-0.1-0.4,0.3-0.6,0.3c-1.9,0.1-1.4-2.1-1.5-3.4C97.4,80.1,97,80.2,97,80
					C97.4,79.7,98.2,79.9,98.7,80.1z"/>
				<path class="st2" d="M103.4,79.9c-0.1,0.3-0.6,0.2-0.5,0.7c0.4-0.2,1.6-1,2.2-0.2c0.2,0.9-0.1,1.9-0.1,2.8c0,0.1,0.4-0.1,0.6,0
					c-0.2,0.5-0.7,0.8-1.3,0.9c-0.1-1.2,0.6-2.6-0.1-3.5c-1.4-0.1-1.6,1.2-1.5,2.6c0.1,0.2,0.7,0,0.6,0.4c-0.4,0.2-1.6,0.4-1.9,0
					c0-0.3,0.4-0.3,0.6-0.3c0.2-0.9-0.1-2,0.1-3c-0.3-0.2-0.8,0-1.2-0.1C101.4,79.7,102.7,80.1,103.4,79.9z"/>
				<path class="st2" d="M92,80c0,0.5,0,1.1-0.4,1.2c-0.7-1.2-2.1-0.2-1.9,0.9c0.2,0.7,1.6,1.2,1.8,0c0.3,0,0.1,0.6,0.6,0.5
					c-0.6,0.9-2.6,1-3.1-0.1c-0.3-1.9,0.8-2.4,2.5-2.3C91.6,80,91.8,80,92,80z"/>
				<path class="st2" d="M49.7,74c0.3,0,0.1-0.5,0.4-0.5c0.4,0.2,0.2,1.9-0.2,2.2c-0.4-1-1-2.1-2.2-1.9c-1,0.1-1.3,1.1-1.5,2.2
					c0.1,0.2,0.5,0.2,0.2,0.4c1.2,1.3,4.8,0.2,4.4,3.2c-0.2,0.1-0.5,0.8-0.8,1.1c-1.1,0.8-3,0.3-3.7-0.6c-0.2,0.1,0,0.6-0.4,0.6
					c-0.4-0.5-0.2-1.9-0.1-2.4c0.5,0.1,0.5,0.6,0.6,1.1c0.4,0.6,1,1.4,2.2,1.1c0.3-0.1,0.1,0.2,0.1,0.2c1.3-0.1,1.3-2.5,0.5-3.2
					c-1.4-0.2-2.9,0.1-3.5-1.1C45.1,73.7,48,72.7,49.7,74z"/>
			</g>
		</g>
		<g>
			<g>
				<path class="st3" d="M107.5,26.8C107.5,26.8,107.4,26.8,107.5,26.8c-0.3-0.4-0.6-0.7-0.9-0.7c0.1-0.1,0.2-0.2,0.3-0.4
					c0,0,0,0,0-0.1c0,0,0,0,0,0c0.1-0.1,0.1-0.1,0.1-0.2c0-0.2,0-0.4,0-0.5c0-0.2-0.1-0.3-0.1-0.5c0,0,0,0,0,0h0c0,0,0,0,0,0
					c0,0,0,0,0,0c0,0-0.1-0.1-0.1-0.1c0-0.1-0.1-0.2-0.2-0.3c-0.2-0.2-0.3-0.3-0.5-0.3c-0.1,0-0.1-0.1-0.2-0.1
					c-0.1-0.1-0.2-0.1-0.3-0.2c-0.3-0.2-0.6-0.2-0.8,0c-0.1,0-0.2,0-0.3,0c0.3-0.5,0.4-1.1,0.1-1.6c-0.3-0.4-0.6-0.6-0.9-0.7
					c-0.1-0.1-0.2-0.1-0.3-0.2c-0.7-0.2-1.4,0.1-1.9,0.7c0,0,0,0.1-0.1,0.1c-0.1,0-0.1,0.1-0.2,0.1c0-0.3,0-0.6-0.1-0.9
					c-0.5-1.5-2.5-1-3.2-0.1c-0.1,0.1-0.1,0.1-0.1,0.2c-1.6-0.6-3.6,0.1-3.1,2.1c-1.2-0.4-2.6,0.9-2.2,2.1c0.1,0.3,0.3,0.5,0.4,0.7
					c0,0,0,0-0.1,0.1c-0.2,0.2-0.2,0.3-0.1,0.1c-0.1,0.1-0.2,0.2-0.2,0.3c-0.1,0.2-0.4,0.4-0.5,0.6c-0.2,0.3-0.2,0.6-0.3,1
					c-0.1,0.6,0.3,1.3,0.8,1.6c0.1,0.1,0.2,0.1,0.3,0c-0.4,0.6-0.4,1.5,0,2.1c0.4,0.8,1.1,1.1,1.9,1c-0.3,1.1,0.1,2.6,1.4,2.5
					c0.8-0.1,1.3-0.4,1.8-0.9c0,0,0,0.1,0.1,0.1c0,0.3,0.1,0.6,0.3,0.8c0,0.1,0.1,0.2,0.2,0.3c0.5,0.4,1.1,0.5,1.6,0.2
					c0,0,0.1,0,0.1,0c0.1-0.1,0.3-0.1,0.4-0.2c0.3-0.2,0.6-0.5,0.6-1c0-0.1,0-0.2,0-0.3c0.6,0.7,1.4,1.2,2.3,0.8
					c0.1,0,0.2-0.1,0.3-0.2c0.3-0.1,0.5-0.2,0.6-0.5c0-0.1,0.1-0.1,0.1-0.2c0.3-0.4,0.3-0.9,0-1.5c0-0.1-0.1-0.1-0.1-0.2
					c0,0,0-0.1,0-0.1c0,0,0.1,0,0.1,0.1c0.4,0.3,0.9,0.4,1.3,0.2c0.1,0,0.1-0.1,0.2-0.1c0.2-0.1,0.3-0.2,0.4-0.4
					c0.5-0.6,0.6-1.5,0.2-2.3c0,0,0,0,0,0c0,0,0-0.1,0-0.1c0.3,0,0.7-0.1,1-0.4C108.3,28.7,108,27.5,107.5,26.8z"/>
			</g>
			<path class="st4" d="M106.6,28c0,3.7-3.1,6.7-6.9,6.7c-3.8,0-6.9-3-6.9-6.7s3.1-6.7,6.9-6.7C103.6,21.3,106.6,24.3,106.6,28z"/>
			<path class="st5" d="M105.6,28c0,3.2-2.6,5.9-5.9,5.9c-3.2,0-5.9-2.6-5.9-5.9c0-3.2,2.6-5.9,5.9-5.9
				C103,22.1,105.6,24.7,105.6,28z"/>
			<g>
				<path class="st6" d="M97,28c0-0.1,0-0.3-0.1-0.4c0-0.1-0.1-0.1-0.1-0.1c0-0.1,0-0.2-0.1-0.3c-0.4-0.4-0.9,0.1-1.2,0.7
					c-0.2,0.3-0.3,0.6-0.4,0.9c0,0,0,0,0,0c0,0,0,0.1-0.1,0.1c-0.2,0.3-0.1,0.5-0.1,0.8c0,0.2,0.3,0.3,0.4,0.1
					c0-0.1,0.1-0.1,0.1-0.2c0,0,0.1,0,0.1,0c0.1-0.1,0.2-0.2,0.2-0.3c0,0,0,0,0,0c0.2-0.2,0.3-0.5,0.4-0.8c0,0,0-0.1,0.1-0.1
					c0-0.1,0.1-0.1,0.1-0.2c0-0.1,0.1-0.2,0.2-0.3c0,0,0,0,0,0c0,0,0,0.1,0,0.1c0,0,0,0.1,0,0.1c0,0,0,0.1,0,0.1
					c0,0.1,0.1,0.2,0.1,0.2c0,0,0.1,0,0.1,0c0,0,0,0,0,0l0,0c0.1,0,0.1-0.1,0.1-0.2c0,0,0-0.1,0-0.1C97,28.1,97,28.1,97,28z"/>
				<g>
					<path class="st7" d="M96.9,28.7c-0.3,0.1-0.1-0.4-0.3-0.4c-0.4,0.7-0.7,1.4-1.4,1.8c-0.7-0.8,0.4-3,1.4-3.2
						c0,0.1,0.1,0.1,0.1,0.1C96.9,27.3,97.2,28.3,96.9,28.7z M95.1,29c0,0.3-0.2,0.6,0,0.8c0.9-0.3,1-1.4,1.6-2.1
						c0.1,0.2,0,0.6,0.2,0.7c0-0.6,0-1.1-0.4-1.3C96.2,27.9,95.8,29.2,95.1,29z M95.4,29c0.2-0.6,0.9-1.2,0.8-1.9
						C95.8,27.7,95.3,28.3,95.4,29z"/>
				</g>
			</g>
			<g>
				<path class="st6" d="M102.4,26.8c0-0.1,0-0.3,0.1-0.4c0-0.1,0.1-0.1,0.1-0.1c0-0.1,0-0.2,0.1-0.3c0.4-0.4,0.9,0.1,1.2,0.7
					c0.2,0.3,0.3,0.6,0.4,0.9c0,0,0,0,0,0c0,0,0,0.1,0.1,0.1c0.2,0.3,0.1,0.5,0.1,0.8c0,0.2-0.3,0.3-0.4,0.1c0-0.1-0.1-0.1-0.1-0.2
					c0,0-0.1,0-0.1,0c-0.1-0.1-0.2-0.2-0.2-0.3c0,0,0,0,0,0c-0.2-0.2-0.3-0.5-0.4-0.8c0,0,0-0.1-0.1-0.1c0-0.1-0.1-0.1-0.1-0.2
					c0-0.1-0.1-0.2-0.2-0.3c0,0,0,0,0,0c0,0,0,0.1,0,0.1c0,0,0,0.1,0,0.1c0,0,0,0.1,0,0.1c0,0.1-0.1,0.2-0.1,0.2c0,0-0.1,0-0.1,0
					c0,0,0,0,0,0l0,0c-0.1,0-0.1-0.1-0.1-0.2c0,0,0-0.1,0-0.1C102.3,26.9,102.3,26.9,102.4,26.8z"/>
				<g>
					<path class="st7" d="M102.6,25.8c0.1,0,0.1,0,0.1-0.1c1,0.1,2.1,2.4,1.4,3.2c-0.7-0.4-1-1.1-1.4-1.8c-0.2,0.1,0,0.5-0.3,0.4
						C102.1,27.1,102.4,26.2,102.6,25.8z M102.9,25.9c-0.3,0.2-0.4,0.8-0.4,1.3c0.2-0.1,0.1-0.5,0.2-0.7c0.5,0.7,0.7,1.7,1.6,2.1
						c0.2-0.2,0-0.5,0-0.8C103.5,28.1,103.1,26.7,102.9,25.9z M103.1,26c-0.1,0.7,0.6,1.3,0.8,1.9C104.1,27.1,103.5,26.5,103.1,26z"
						/>
				</g>
			</g>
			<g>
				<path class="st8" d="M99.7,25.6c-0.1-0.3,0.3-0.1,0.3-0.3c-0.3-0.2-0.8-0.1-0.9,0.2c0.6,1.8,3.7-0.9,1.2-1.3
					c-1.3-0.2-2.3,0.9-2.1,1.9c0.3,2,5.4,1.2,5,4.1c-0.1,1-1.4,1.7-2.7,1.8c-1.6,0.1-4.1-0.2-3.3-2c0.1-0.3,0.5-0.5,1.3-0.5
					c0.3,0.2,0.5,1-0.1,0.9c-0.4,0,0.2-0.4-0.1-0.4c-0.1-0.1-0.2,0-0.2-0.1c-0.4,0-0.6,0.2-0.6,0.5c0.1,1.1,3.9,0.4,4-0.4
					c-1-1.8-3.9-1.6-4.6-3.6c0-0.7,0-1.2,0.3-1.6c0.7-1,4.6-1.9,4.9-0.1c0.3,1.9-3.4,2.6-3.3,1C98.8,24.2,101.3,25.4,99.7,25.6z"/>
			</g>
			<path class="st7" d="M101.4,21.4c0.9-1.2,4.1-0.9,3.6,1.6c1.5,0,3,1.8,1.9,3c1.3,0.5,2.4,3.6,0.1,3.8c0.8,1.5-0.3,3.8-2.1,3
				c1,2.2-2,3.2-3.3,1.9c-0.2,1.8-3.4,1.8-3.6-0.1c-1.1,1.4-4,0.6-3.3-1.8c-1.6,0-2.5-1.4-1.9-3c-1.5-0.4-1.2-3.1-0.1-3.7
				c-0.8-1.4-0.1-3.4,1.8-3.2c-0.2-1.6,1.8-3.1,3.3-2.1C98.4,19.6,101.4,19.3,101.4,21.4z M98,21.1c0.1,0.2,0.4,0.6,0.1,0.9
				c-0.4,0.2-0.5-0.5-0.4-1c-1.4-0.8-3.1,0.2-3,1.8c0.2,0.2,1,0.6,0.5,1c-0.4,0-0.4-0.4-0.6-0.7c-1.8-0.3-2.6,1.6-1.7,2.8
				c0.3,0,0.7-0.2,0.7,0.2c-0.1,0.3-0.6,0.1-0.8,0.1c-1,0.5-1.4,2.9,0,3.3c0.3,0,0.6-0.6,0.9-0.1c0,0.4-0.6,0.3-0.8,0.5
				c-0.4,1.4,0.2,2.8,1.9,2.6c0.1-0.2,0.5-0.6,0.7-0.2c0,0.4-0.4,0.4-0.7,0.5c-0.8,2.3,2,3,2.9,1.5c0-0.5,0-1,0.4-1
				c0.4,0.3-0.1,0.8-0.1,1.2c0.2,1.7,3.2,1.9,3.3,0c-0.2-0.2-0.5-0.9,0-1c0.3,0.1,0.2,0.5,0.2,0.9c1.1,1.4,4.1,0.3,3-1.8
				c-0.2-0.2-0.7-0.3-0.4-0.6c0.6,0.2,0.6,0.6,1.2,0.7c1.3,0.1,2.2-1.6,1.4-2.8c-0.2-0.2-0.5-0.1-0.6-0.4c0.3-0.3,0.5,0.1,0.8,0.1
				c1.9-0.3,1-3-0.1-3.4c-0.4,0-0.7,0.4-0.9-0.1c0.1-0.2,0.4-0.2,0.8-0.2c1-1.1-0.4-2.9-1.7-2.7c-0.4,0.1-0.3,0.5-0.7,0.4
				c-0.3-0.4,0.3-0.5,0.5-0.6c0-0.3,0-0.7,0-1c-0.3-0.7-0.9-1.2-1.8-1.2c-1,0.1-1.3,0.9-1.8,1.3C102.1,19.9,98.4,19.3,98,21.1z
				 M98,21.9c0-0.2,0-0.4-0.1-0.4C97.9,21.6,97.8,22,98,21.9z"/>
		</g>
		<g>
			<path class="st9" d="M88.5,19c-0.4,0.3-1.1,0.3-1.6,0.5c-0.3-1.2-0.8-2.1-1.1-3.2c-1.7,0-1.1,2.3-1.2,3.8c-0.3,0.2-1,0.1-1.5,0.1
				c0-3.5,0.3-6.7,0.2-10.1c0.6-0.1,1.5-0.4,2-0.2C86.3,12.9,87.3,16,88.5,19z M84.7,15.1c0.5,0.1,0.6-0.2,1-0.1
				c-0.2-1-0.2-2.2-1-2.6C84.7,13.3,84.7,14.2,84.7,15.1z"/>
			<path class="st9" d="M78.1,10.7c0.1,1.3,0.3,2.4,0.2,3.7c0.3,0.4,0.7-0.6,1-0.2c0,0.5,0.3,0.7,0.4,1.1c-0.4,0.2-0.7,0.6-1.1,0.7
				c-0.1,1,0.1,1.7,0.1,2.6c0.9,0,1.7,0,2.6,0c0.1,0.6,0.2,1.2,0.1,2c-1.3,0.1-2.6,0.2-4,0.2c-0.2-1-0.3-2.3-0.4-3.5
				c-0.5-0.1-0.4,0.3-0.7,0.2c-0.1-0.9,0-1.5,0.5-1.9c0-1.7-0.3-3.1-0.4-4.7C77,10.9,77.5,10.8,78.1,10.7z"/>
			<path class="st9" d="M71.5,11.9c4.3-0.7,4.8,8.6,1.1,9C68.6,21.4,67.6,12.6,71.5,11.9z M72.4,18.8c1.6-0.2,1.2-6-0.7-5.4
				C70,13.9,70.5,19.1,72.4,18.8z"/>
			<path class="st9" d="M67.5,12.4c-0.2,0.9-0.7,1.5-1,2.4c-0.3,0.7-0.9,1.8-0.9,2.4c0.1,1.6,2.9,3,3.2,4.6
				c-0.5,0.2-0.9,0.5-1.5,0.6c-0.8-1.3-1.8-2.5-2.7-3.6c-0.1,0.9,0.1,2.5,0.2,3.6c-0.5,0-1,0-1.5,0c-0.4-3.1-0.8-6.1-1-9.3
				c0.5-0.1,0.9-0.4,1.5-0.5c0,1.4,0.4,2.4,0.5,3.7c0.9-1,1.1-2.7,1.7-4C66.6,12.3,67.2,12.2,67.5,12.4z"/>
			<path class="st9" d="M57.6,13.6c4.7-1,5,9,1,9C54.8,22.7,53.9,14.4,57.6,13.6z M58.6,20.7c1.9-0.2,1.3-6.2-0.7-5.4
				C56.2,15.8,56.8,20.8,58.6,20.7z"/>
			<path class="st9" d="M50.1,14.8c4.6-0.9,4.9,8.9,1,9C47.3,23.9,46.4,15.5,50.1,14.8z M51.1,21.8c1.8-0.3,1.2-6.2-0.9-5.4
				C48.7,17,49.3,22.1,51.1,21.8z"/>
			<path class="st9" d="M42.1,25c-0.6-2.9-1.1-6.5-1.2-9.4c0.1,0,0.2,0,0.2,0c3.1-0.8,5.3,2,5.6,4.5C47,23,44.9,24.5,42.1,25z
				 M43.1,22.5c2.2-0.6,2.3-5-0.5-5.1C42.7,19.2,42.9,20.9,43.1,22.5z"/>
		</g>
		<g>
			<path class="st10" d="M81.8,31.2c-0.6,0.1-1.1,0.3-1.7,0.4c-0.3-1.2-0.9-2.1-1.2-3.2c-1.6,0-1.2,2-1.4,3.5
				c-0.4,0.2-1,0.3-1.6,0.2c0-3.4,0.3-6.4,0.2-9.8c0.5,0.1,1.2-0.5,1.7-0.4c0.9,0.3,1.7,3.6,2.1,4.6C80.8,28.5,81.4,29.9,81.8,31.2z
				 M77.6,27.6c0.6-0.1,0.9-0.3,1.4-0.5c-0.5-0.8-0.4-2.1-1.4-2.5C77.6,25.6,77.6,26.6,77.6,27.6z"/>
			<path class="st10" d="M74.3,22.8c0,0.5,0,1,0,1.5c-0.3,0.2-0.9,0.1-1.4,0.1c0.2,2.7,0.4,5.3,0.7,7.8c-0.6,0-0.9,0.2-1.6,0.1
				c-0.3-2.6-0.4-5.4-0.9-7.8c-0.6,0.1-1.1,0.2-1.9,0.1c0-0.5,0-0.9-0.1-1.2C70.9,23.2,72.5,22.9,74.3,22.8z"/>
			<path class="st10" d="M66.5,23.4c1.2,3.1,2.5,6.1,3.6,9.3c-0.6,0-1.1,0.2-1.5,0.4c-0.7-0.9-0.9-2.2-1.5-3.2
				c-0.5,0-0.6,0.4-1.1,0.4c-0.1,1-0.2,2.1-0.2,3.1c-0.5,0.1-1,0.2-1.5,0.2c0-3.3-0.1-6.7,0.1-9.8C65.1,23.7,65.6,23.4,66.5,23.4z
				 M65.7,28.5c0.3,0.2,1.1,0,1.2-0.4c-0.5-0.5-0.5-1.7-1.1-2.1C65.8,26.7,65.9,27.7,65.7,28.5z"/>
			<path class="st10" d="M46.2,24.3c0.5-0.1,0.6,0.2,1.1,0.1c-0.3,0.7-0.6,1.3-1.6,1.2C45.9,25.2,46.1,24.8,46.2,24.3z"/>
			<path class="st10" d="M61.2,24.6c0.7,2.4,0.8,6.2,1,8.8c-0.5,0-1.1,0-1.5,0.1c-0.2-3-0.6-5.8-0.9-8.7
				C60.1,24.7,60.8,24.9,61.2,24.6z"/>
			<path class="st10" d="M56.5,24.9c0.5,0,0.9,0,1.4,0c-0.2,3-0.5,5.8-0.6,8.9c-0.3,0.2-1,0.1-1.5,0.1c-0.5-1.8-1-3.6-1.7-5.2
				c-0.5,1.6-0.6,3.7-0.9,5.6c-0.6-0.1-0.8,0.2-1.4,0.1c-0.8-2.8-1.5-5.7-2.2-8.5c0.4-0.2,1-0.2,1.4-0.5c0.6,1.7,0.9,3.8,1.4,5.7
				c0.5-1.4,0.4-3.4,0.6-5.2c0.6,0,0.9-0.2,1.5-0.2c0.6,1.6,1,3.3,1.7,4.7C56.4,28.7,56.4,26.8,56.5,24.9z"/>
			<path class="st10" d="M47.8,26.2c-0.1,0.5,0.1,0.9-0.1,1.4c-1.2,0-2.4,0.2-2.5,1.2c-0.2,1.9,3.2,1.8,3.8,3.5
				c0.8,2-1.2,3.7-3.8,3.1c-0.2-0.3,0-1,0-1.5c0.9,0.1,1.5-0.2,1.9-0.7c-0.4-2-3.5-2.1-3.4-4.5C43.6,27,45.8,25.3,47.8,26.2z"/>
		</g>
		<g>
			<path class="st0" d="M79.2,0c0.2,0.1,0.4,0.3,0.7,0.3c0,0.6,0,1.2-0.5,1.3C78.4,1.8,78.6,0.2,79.2,0z"/>
			<path class="st0" d="M84,0.3c0.1,0.8-0.3,1.2-1,1.3C82.1,1,83-0.7,84,0.3z"/>
			<path class="st0" d="M87.9,0c0,0.5,0.3,0.5,0.2,1c-0.2,0.1-0.4,0.2-0.5,0.5c-0.7,0-1-0.4-1-1.3C87,0.1,87.3-0.1,87.9,0z"/>
			<path class="st0" d="M91,0c0.2,0,0.5,0,0.7,0c0.2,0.3,0.3,0.7,0.2,1.3c-0.7,0.2-0.5,0.2-1.2,0C90.7,0.7,90.8,0.3,91,0z"/>
			<path class="st0" d="M96.1,0.3c0.1,0.6,0,1-0.2,1.3C94,1.8,94.9-0.5,96.1,0.3z"/>
			<path class="st0" d="M74.9,0.5c0.8-0.1,1.2,0.3,1.2,1c-0.2,0.1-0.4,0.2-0.5,0.5c-0.4,0-0.5-0.3-1-0.3C74.6,1.2,74.7,0.8,74.9,0.5
				z"/>
			<path class="st0" d="M100.2,1.1c0,0.5-0.3,0.5-0.2,1c-0.6,0.1-0.9,0-1.2-0.3c0-0.3,0-0.5,0-0.8C99,0.7,99.9,0.7,100.2,1.1z"/>
			<path class="st0" d="M70.8,1.1C71.4,1,72,1,72,1.6c0.1,0.8-0.5,0.8-1.2,0.8C70.6,1.6,70.6,1.8,70.8,1.1z"/>
			<path class="st0" d="M103.1,1.1c0.2,0,0.5,0,0.7,0C105,2.9,101.8,2.9,103.1,1.1z"/>
			<path class="st0" d="M66.7,1.3c0.4,0,0.8,0,1.2,0c0,0.4,0,0.9,0,1.3c-0.7,0.2-0.5,0.2-1.2,0C66.7,2.2,66.7,1.7,66.7,1.3z"/>
			<path class="st0" d="M108.1,2.9c-0.5,0.6-1.1,0.1-1.4-0.3C106.6,1.2,108.3,1.4,108.1,2.9z"/>
			<path class="st0" d="M64.1,2.9c-0.5,0-0.3,0.7-1,0.5c-0.1-0.2-0.2-0.5-0.5-0.5C62.6,1.6,64.1,1.6,64.1,2.9z"/>
			<path class="st0" d="M60,2.3c0.1,0.6,0,1-0.2,1.3c-0.3,0-0.6,0-1,0C58.3,2.7,59.1,1.8,60,2.3z"/>
			<path class="st0" d="M111,2.3c0.2,0,0.5,0,0.7,0C113,4.2,109.8,4.2,111,2.3z"/>
			<path class="st0" d="M55.4,4.1C53,2.9,57.3,2.1,55.4,4.1L55.4,4.1z"/>
			<path class="st0" d="M50.6,3.9c0-0.3,0-0.5,0-0.8C52.3,1.8,52.3,5.2,50.6,3.9z"/>
			<path class="st0" d="M47,3.6c0.2,0,0.5,0,0.7,0c0.2,0.3,0.3,0.7,0.2,1.3c-0.7,0.2-0.5,0.2-1.2,0C46.6,4.3,46.8,3.9,47,3.6z"/>
			<path class="st0" d="M115.8,3.6c0.2,0.8,0.2,0.5,0,1.3c-0.4,0-0.8,0-1.2,0c0-0.3,0-0.7,0-1C114.9,3.7,115.3,3.5,115.8,3.6z"/>
			<path class="st0" d="M42.6,5.4C43.2,2.6,45.2,6.7,42.6,5.4L42.6,5.4z"/>
			<path class="st0" d="M39,6.7c-0.2-0.3-0.3-0.7-0.2-1.3C40.1,4.5,40.8,7,39,6.7z"/>
			<path class="st0" d="M118.5,5.4c0.2,0,0.5,0,0.7,0c0.3,0.3,0.3,1.2,0,1.5c-0.4,0-0.5-0.3-1-0.3C118.1,6.1,118.3,5.7,118.5,5.4z"
				/>
			<path class="st0" d="M35.2,6.2c0.2,0,0.5,0,0.7,0c0.2,0.3,0.3,0.7,0.2,1.3c-0.7,0.2-0.5,0.2-1.2,0C34.9,6.9,35,6.5,35.2,6.2z"/>
			<path class="st0" d="M32.3,7.5c0.1,0.6,0,1-0.2,1.3c-0.3,0-0.6,0-1,0C30.6,7.8,31.4,7,32.3,7.5z"/>
			<path class="st0" d="M121.1,8.5c0.6,0,1.2,0,1.2,0.5c0.1,0.8-0.5,0.8-1.2,0.8C120.9,9,120.9,9.3,121.1,8.5z"/>
			<path class="st0" d="M28.7,10.3C26.1,11.5,28.3,7.2,28.7,10.3L28.7,10.3z"/>
			<path class="st0" d="M25.3,12.4c-0.2,0-0.2,0.3-0.2,0.5c-0.8,0.2-0.7-0.4-1.2-0.5C23.8,11.1,25.3,11.1,25.3,12.4z"/>
			<path class="st0" d="M122.8,12.4c0.2,0,0.5,0,0.7,0c0.2,0.3,0.3,0.7,0.2,1.3c-0.4,0-0.5,0.3-1,0.3
				C122.4,13.2,122.2,13,122.8,12.4z"/>
			<path class="st0" d="M21,15.5c0-0.3,0-0.5,0-0.8C22.7,13.4,22.7,16.8,21,15.5z"/>
			<path class="st0" d="M198.4,16.2c0.4,0.2,0.8,0.5,0.7,1.3c-0.3,0.2-0.6,0.3-1.2,0.3c0-0.5-0.3-0.5-0.2-1
				C197.9,16.5,198.3,16.6,198.4,16.2z"/>
			<path class="st0" d="M123.5,16.5c0.4,0.2,0.8,0.5,0.7,1.3c-0.3,0.2-0.6,0.3-1.2,0.3c0-0.5-0.3-0.5-0.2-1
				C123,16.8,123.5,16.9,123.5,16.5z"/>
			<path class="st0" d="M194.3,16.5c0.2,0.1,0.4,0.3,0.7,0.3c0.2,1-0.2,1.5-1.2,1.3C193.7,17.2,193.9,16.8,194.3,16.5z"/>
			<path class="st0" d="M203.2,17.5c-0.5,0.1-0.4,0.7-1.2,0.5C200.9,16.8,203.3,15.8,203.2,17.5z"/>
			<path class="st0" d="M191.2,17.5c0,0.5-0.3,0.5-0.2,1c-0.6,0.1-0.9,0-1.2-0.3c0-0.3,0-0.5,0-0.8C190,17.2,190.9,17.2,191.2,17.5z
				"/>
			<path class="st0" d="M206.3,17.3c0.4,0.2,0.8,0.5,0.7,1.3c-0.3,0.2-0.6,0.3-1.2,0.3C205.5,18,205.8,17.8,206.3,17.3z"/>
			<path class="st0" d="M20.2,18c0.1,0.6,0,1-0.2,1.3c-0.3,0-0.6,0-1,0C18.6,18.4,19.4,17.5,20.2,18z"/>
			<path class="st0" d="M186.1,18c0.2,0,0.5,0,0.7,0C188.1,19.9,184.9,19.9,186.1,18z"/>
			<path class="st0" d="M209.9,18.8c0.6,0,0.9,0.4,1,1c-0.5,0.1-0.4,0.7-1.2,0.5C209.2,19.8,209.7,19.2,209.9,18.8z"/>
			<path class="st0" d="M183.2,20.9c-0.3,0-0.6,0-1,0c-0.2-0.3-0.3-0.7-0.2-1.3C182.9,19.1,183.7,19.9,183.2,20.9z"/>
			<path class="st0" d="M123.3,20.9c0.2,0.8,0.2,0.5,0,1.3c-0.6,0.1-0.9,0-1.2-0.3c0-0.3,0-0.5,0-0.8
				C122.4,20.9,122.7,20.8,123.3,20.9z"/>
			<path class="st0" d="M214.3,20.9c0.5,0.9-0.3,1.8-1.2,1.3C212.9,21.1,213.3,20.7,214.3,20.9z"/>
			<path class="st0" d="M179.1,21.4c0.4,0.2,0.8,0.4,0.7,1c-0.2,0-0.2,0.3-0.2,0.5c-0.9,0.2-1.2-0.3-1.2-1
				C178.6,21.7,179.1,21.8,179.1,21.4z"/>
			<path class="st0" d="M21,21.7c0.2,0.1,0.4,0.3,0.7,0.3c0.2,1-0.2,1.5-1.2,1.3C20.3,22.4,20.6,21.9,21,21.7z"/>
			<path class="st0" d="M216.2,23.7c0.4,0,0.8,0,1.2,0c0.2,1-0.2,1.5-1.2,1.3C216,24.2,216,24.5,216.2,23.7z"/>
			<path class="st0" d="M176.5,24.2c0.2,0.8,0.2,0.5,0,1.3c-0.6,0.1-0.9,0-1.2-0.3c0-0.3,0-0.5,0-0.8
				C175.6,24.3,175.9,24.1,176.5,24.2z"/>
			<path class="st0" d="M24.3,26.3c-0.5,0.6-1.1,0.1-1.4-0.3C22.9,24.7,24.6,24.8,24.3,26.3z"/>
			<path class="st0" d="M122.1,25c0.2,0.8,0.2,0.5,0,1.3c-0.6,0.1-0.9,0-1.2-0.3c0-0.3,0-0.5,0-0.8C121.2,25,121.5,24.9,122.1,25z"
				/>
			<path class="st0" d="M173.1,26.5c0.2,0.8,0.2,0.5,0,1.3c-0.6,0.1-0.9,0-1.2-0.3c0-0.3,0-0.5,0-0.8
				C172.2,26.6,172.6,26.5,173.1,26.5z"/>
			<path class="st0" d="M26.7,27.3c0.6,0,0.9,0.4,1,1c-0.2,0-0.2,0.3-0.2,0.5C26.1,29.2,26.1,27.8,26.7,27.3z"/>
			<path class="st0" d="M218.4,27.3c1-0.2,1.4,0.2,1.2,1.3c-0.4,0-0.8,0-1.2,0C218.2,27.8,218.2,28.1,218.4,27.3z"/>
			<path class="st0" d="M38.1,27.8c0.2,0,0.5,0,0.7,0c0.2,0.3,0.3,0.7,0.2,1.3c-0.7,0.2-0.5,0.2-1.2,0
				C37.7,28.5,37.9,28.1,38.1,27.8z"/>
			<path class="st0" d="M31.3,28.9c0.2,0.8,0.2,0.5,0,1.3c-0.6,0.1-0.9,0-1.2-0.3c0-0.3,0-0.5,0-0.8C30.4,28.9,30.8,28.8,31.3,28.9z
				"/>
			<path class="st0" d="M34.4,28.9c0.2,0,0.5,0,0.7,0C36.4,30.7,33.2,30.7,34.4,28.9z"/>
			<path class="st0" d="M119.2,28.9c0.6,0,1.2,0,1.2,0.5c0.1,0.8-0.5,0.8-1.2,0.8C119,29.4,119,29.7,119.2,28.9z"/>
			<path class="st0" d="M221.5,31.7c0.1,0.8-0.5,0.8-1.2,0.8c0-0.5-0.3-0.5-0.2-1C220.4,31.1,221.5,31,221.5,31.7z"/>
			<path class="st0" d="M118.2,32.5c0,0.5,0.3,0.5,0.2,1c-0.2,0.2-0.7,0.2-0.7,0.5c-0.4-0.2-0.8-0.5-0.7-1.3
				C117.3,32.5,117.7,32.4,118.2,32.5z"/>
			<path class="st0" d="M222.5,35.3c0,0.4,0,0.9,0,1.3c-0.4,0-0.8,0-1.2,0C220.8,35.7,221.6,34.8,222.5,35.3z"/>
			<path class="st0" d="M115.1,35.8c0.6,0,0.9,0.4,1,1c-0.2,0-0.2,0.3-0.2,0.5C114.5,37.7,114.4,36.3,115.1,35.8z"/>
			<path class="st0" d="M112.9,40.2c-0.3,0-0.6,0-1,0c-0.2-0.3-0.3-0.7-0.2-1.3C112.6,38.4,113.4,39.3,112.9,40.2z"/>
			<path class="st0" d="M222,39.4c0.8-0.2,0.7,0.4,1.2,0.5c-0.1,0.4-0.4,0.6-0.5,1c-0.4,0-0.5-0.3-1-0.3
				C221.7,40.1,221.8,39.7,222,39.4z"/>
			<path class="st0" d="M110,42.5c-0.5,0-0.3,0.7-1,0.5c-0.1-0.2-0.2-0.5-0.5-0.5C108.5,41.3,110.1,41.3,110,42.5z"/>
			<path class="st0" d="M223.4,43.8c0.2,0.8,0.2,0.5,0,1.3c-0.6,0.1-0.9,0-1.2-0.3c0-0.3,0-0.5,0-0.8
				C222.5,43.8,222.9,43.7,223.4,43.8z"/>
			<path class="st0" d="M106.2,44.6c0.2,0,0.5,0,0.7,0C108.2,46.4,104.9,46.4,106.2,44.6z"/>
			<path class="st0" d="M222.5,49.5c-0.2-0.3-0.3-0.7-0.2-1.3C223.5,47.2,224.3,49.7,222.5,49.5z"/>
			<path class="st0" d="M222.5,52.3c0.2,0,0.5,0,0.7,0c0.2,0.3,0.3,0.7,0.2,1.3c-0.7,0.2-0.5,0.2-1.2,0
				C222.1,53,222.3,52.6,222.5,52.3z"/>
			<path class="st0" d="M40,55.6c0.6-0.1,0.9,0,1.2,0.3C41.4,57.9,39.2,56.9,40,55.6z"/>
			<path class="st0" d="M45,55.6c0,0.5,0.3,0.5,0.2,1c-0.3,0.4-1.1,0.4-1.4,0c0-0.3,0-0.5,0-0.8C44.1,55.7,44.5,55.6,45,55.6z"/>
			<path class="st0" d="M37.1,56.2c0.5,0.9-0.3,1.8-1.2,1.3C35.7,56.4,36.1,56,37.1,56.2z"/>
			<path class="st0" d="M31.8,57.4c0-0.3,0-0.5,0-0.8C33.5,55.3,33.5,58.8,31.8,57.4z"/>
			<path class="st0" d="M222.7,56.7c0.1,0.6,0,1-0.2,1.3c-0.3,0-0.6,0-1,0C221,57,221.8,56.2,222.7,56.7z"/>
			<path class="st0" d="M27.9,57.2c0.4,0,0.8,0,1.2,0c0.2,0.8,0.2,0.5,0,1.3c-0.4,0-0.8,0-1.2,0C27.9,58,27.9,57.6,27.9,57.2z"/>
			<path class="st0" d="M24.3,58c0.4,0,0.5,0.3,1,0.3c0.1,0.6,0,1-0.2,1.3C23.8,59.6,23.8,58.7,24.3,58z"/>
			<path class="st0" d="M21.4,59.5c0.1,0.6,0,1-0.2,1.3C19.4,61,20.3,58.7,21.4,59.5z"/>
			<path class="st0" d="M16.4,60.8c0.4,0,0.8,0,1.2,0c0,0.4,0,0.9,0,1.3c-0.4,0-0.8,0-1.2,0C16.2,61.3,16.2,61.6,16.4,60.8z"/>
			<path class="st0" d="M221.7,60.8c0.2,0.8,0.2,0.5,0,1.3c-0.4,0-0.8,0-1.2,0c0-0.3,0-0.7,0-1C220.8,60.8,221.2,60.7,221.7,60.8z"
				/>
			<path class="st0" d="M14,63.4c-0.5,0-0.3,0.7-1,0.5c-0.1-0.2-0.2-0.5-0.5-0.5C12.5,62.1,14,62.1,14,63.4z"/>
			<path class="st0" d="M8.9,65.4c0-0.3,0-0.5,0-0.8C10.7,63.3,10.7,66.8,8.9,65.4z"/>
			<path class="st0" d="M218.8,64.7c0.4,0,0.8,0,1.2,0c0,0.4,0,0.9,0,1.3c-0.4,0-0.8,0-1.2,0C218.7,65.2,218.7,65.4,218.8,64.7z"/>
			<path class="st0" d="M7,67c0.1,1.3-0.8,1.4-1.4,0.8C5.4,66.8,6.4,66.4,7,67z"/>
			<path class="st0" d="M217.9,68.3c0,0.5,0.3,0.5,0.2,1c-0.2,0.2-0.7,0.2-0.7,0.5c-0.4-0.2-0.8-0.5-0.7-1.3
				C217,68.3,217.3,68.2,217.9,68.3z"/>
			<path class="st0" d="M2.9,69.8c0.4,0,0.8,0,1.2,0c0.2,1-0.2,1.5-1.2,1.3C2.7,70.3,2.7,70.6,2.9,69.8z"/>
			<path class="st0" d="M215.7,72.4c0.1,0.8-0.5,0.8-1.2,0.8c0-0.5-0.3-0.5-0.2-1C214.6,71.8,215.7,71.7,215.7,72.4z"/>
			<path class="st0" d="M1.9,73.4c0,0.5,0.3,0.5,0.2,1c-0.5,0-0.3,0.7-1,0.5C0.6,74.5,0.6,73.1,1.9,73.4z"/>
			<path class="st0" d="M212.1,74.7c0.2,0.1,0.4,0.3,0.7,0.3c0,0.6,0,1.2-0.5,1.3C211.3,76.4,211.5,74.8,212.1,74.7z"/>
			<path class="st0" d="M209.2,78c-0.4,0-0.8,0-1.2,0c0-0.4,0-0.9,0-1.3C208.9,76.3,209.7,77.1,209.2,78z"/>
			<path class="st0" d="M1.9,78.3c0.1,0.8-0.5,0.8-1.2,0.8c0-0.5-0.3-0.5-0.2-1C0.8,77.7,1.9,77.6,1.9,78.3z"/>
			<path class="st0" d="M205.6,78.6c0.1,0.6,0,1-0.2,1.3c-0.3,0-0.6,0-1,0C203.9,78.9,204.7,78.1,205.6,78.6z"/>
			<path class="st0" d="M201.5,79.6c0.2,0.3,0.3,0.7,0.2,1.3C200.6,81.7,199.7,79.4,201.5,79.6z"/>
			<path class="st0" d="M197.7,80.4c0.2,0.8,0.2,0.5,0,1.3c-0.6,0.1-0.9,0-1.2-0.3c0-0.3,0-0.5,0-0.8
				C196.7,80.4,197.1,80.3,197.7,80.4z"/>
			<path class="st0" d="M177.9,81.7c-0.5,0-0.3,0.7-1,0.5c-0.1-0.2-0.2-0.5-0.5-0.5C176.4,80.4,178,80.4,177.9,81.7z"/>
			<path class="st0" d="M181.3,82.2C178.9,80.9,183.2,80.1,181.3,82.2L181.3,82.2z"/>
			<path class="st0" d="M185.9,80.9c0.1,0.6,0,1-0.2,1.3c-0.3,0-0.6,0-1,0C184.2,81.2,185,80.4,185.9,80.9z"/>
			<path class="st0" d="M172.9,80.9c0.4,0,0.5,0.3,1,0.3c0.1,0.6,0,1-0.2,1.3C172.3,82.5,172.3,81.6,172.9,80.9z"/>
			<path class="st0" d="M193.8,81.1c0,0.4,0,0.9,0,1.3c-0.4,0-0.8,0-1.2,0c0-0.4,0-0.9,0-1.3C193.3,81,193.1,81,193.8,81.1z"/>
			<path class="st0" d="M169,81.1c0.2,0.1,0.4,0.3,0.7,0.3c0,0.6,0,1.2-0.5,1.3C168.2,82.9,168.4,81.3,169,81.1z"/>
			<path class="st0" d="M189,81.1c0.6,0,0.9,0.4,1,1c-0.5,0.1-0.4,0.7-1.2,0.5C188.2,82.1,188.7,81.5,189,81.1z"/>
			<path class="st0" d="M134.1,83.2c-0.3,0-0.6,0-1,0c-0.2-0.3-0.3-0.7-0.2-1.3C133.8,81.4,134.6,82.3,134.1,83.2z"/>
			<path class="st0" d="M138.2,81.9c0.1,0.6,0,1-0.2,1.3c-0.3,0-0.6,0-1,0C136.5,82.3,137.3,81.4,138.2,81.9z"/>
			<path class="st0" d="M165.9,82.7c-0.5,0-0.3,0.7-1,0.5c-0.1-0.2-0.2-0.5-0.5-0.5C164.4,81.4,165.9,81.4,165.9,82.7z"/>
			<path class="st0" d="M1.9,83.2c-0.4,0-0.5,0.3-1,0.3c-0.1-0.2-0.2-0.5-0.5-0.5C0.5,81.6,2.2,81.7,1.9,83.2z"/>
			<path class="st0" d="M160.6,81.9c0.6-0.1,0.9,0,1.2,0.3c0,0.3,0,0.7,0,1C160.9,83.7,160.1,82.8,160.6,81.9z"/>
			<path class="st0" d="M129.3,82.2c0.6,0,0.9,0.4,1,1c-0.2,0-0.2,0.3-0.2,0.5C128.7,84,128.6,82.6,129.3,82.2z"/>
			<path class="st0" d="M142.3,82.4c0,0.5-0.3,0.5-0.2,1c-0.6,0.1-0.9,0-1.2-0.3c0-0.3,0-0.5,0-0.8C141.2,82.1,142,82.1,142.3,82.4z
				"/>
			<path class="st0" d="M156.7,82.4c0.8-0.2,0.7,0.4,1.2,0.5c-0.1,0.4-0.4,0.6-0.5,1c-0.4,0-0.5-0.3-1-0.3
				C156.4,83.1,156.5,82.7,156.7,82.4z"/>
			<path class="st0" d="M125.2,82.7c0.2,0,0.5,0,0.7,0c0.2,0.3,0.3,0.7,0.2,1.3c-0.4,0-0.5,0.3-1,0.3
				C124.9,83.9,124.9,83,125.2,82.7z"/>
			<path class="st0" d="M144.9,82.9c0.6-0.1,0.9,0,1.2,0.3c0,0.3,0,0.7,0,1C145.3,84.7,144.5,83.9,144.9,82.9z"/>
			<path class="st0" d="M153.9,83.5c0.1,0.6,0,1-0.2,1.3c-0.3,0-0.6,0-1,0C152.2,83.8,153,82.9,153.9,83.5z"/>
			<path class="st0" d="M122.1,83.5c0.2,0.8,0.2,0.5,0,1.3c-0.6,0.1-0.9,0-1.2-0.3c0-0.3,0-0.5,0-0.8
				C121.2,83.5,121.5,83.4,122.1,83.5z"/>
			<path class="st0" d="M118.2,84.2c0.1,0.6,0,1-0.2,1.3c-0.3,0-0.6,0-1,0C116.5,84.6,117.3,83.7,118.2,84.2z"/>
			<path class="st0" d="M148.8,84.5c1.7-1.3,1.4,2.5-0.2,1C148.6,85.1,148.4,84.5,148.8,84.5z"/>
			<path class="st0" d="M114.4,86c-0.2,0-0.2,0.3-0.2,0.5c-0.8,0.2-0.7-0.4-1.2-0.5C112.9,84.8,114.4,84.8,114.4,86z"/>
			<path class="st0" d="M3.4,85.3c0.7,0.3,1.1,0.7,0.7,1.5c-0.6,0.1-0.9,0-1.2-0.3C2.7,85.7,3.3,85.7,3.4,85.3z"/>
			<path class="st0" d="M145.9,85.3c0.2,0.8,0.2,0.5,0,1.3c-0.6,0.1-0.9,0-1.2-0.3c0-0.3,0-0.5,0-0.8
				C145,85.3,145.3,85.2,145.9,85.3z"/>
			<path class="st0" d="M109.6,85.8c0.2,0.1,0.4,0.3,0.7,0.3c0,0.6,0,1.2-0.5,1.3C108.8,87.5,109,85.9,109.6,85.8z"/>
			<path class="st0" d="M153.4,86.3c0,0.5,0.3,0.5,0.2,1c-0.5,0-0.3,0.7-1,0.5C152,87.4,152,86,153.4,86.3z"/>
			<path class="st0" d="M141.3,86.8c0.2,0,0.5,0,0.7,0C143.3,88.7,140.1,88.7,141.3,86.8z"/>
			<path class="st0" d="M105.2,87.1c0.4,0,0.8,0,1.2,0c0,0.4,0,0.9,0,1.3C105.6,88.9,104.7,88,105.2,87.1z"/>
			<path class="st0" d="M6.5,87.8c0.4,0,0.5,0.3,1,0.3c0.1,0.6,0,1-0.2,1.3C6.1,89.5,5.8,88.4,6.5,87.8z"/>
			<path class="st0" d="M101.4,88.1c0.6,0,1.2,0,1.2,0.5c0.1,0.8-0.5,0.8-1.2,0.8C101.2,88.6,101.2,88.9,101.4,88.1z"/>
			<path class="st0" d="M98.5,88.9c0.8,1.3-1.4,2.2-1.2,0.3C97.6,88.9,97.9,88.8,98.5,88.9z"/>
			<path class="st0" d="M138.2,89.4c0.4,0,0.5,0.3,1,0.3C139.6,91.8,137,90.7,138.2,89.4z"/>
			<path class="st0" d="M9.9,89.6c0.4,0,0.8,0,1.2,0c0,0.4,0,0.9,0,1.3c-0.7,0.2-0.5,0.2-1.2,0C9.9,90.5,9.9,90.1,9.9,89.6z"/>
			<path class="st0" d="M93.4,89.6c0.6,0,1.2,0,1.2,0.5c0.1,0.8-0.5,0.8-1.2,0.8C93.3,90.1,93.3,90.4,93.4,89.6z"/>
			<path class="st0" d="M155.3,90.9c-0.5,0-0.3,0.7-1,0.5c-0.1-0.2-0.2-0.5-0.5-0.5C153.8,89.7,155.3,89.7,155.3,90.9z"/>
			<path class="st0" d="M90.5,90.4c0,0.5,0.3,0.5,0.2,1c-0.3,0.4-1.1,0.4-1.4,0c0-0.3,0-0.5,0-0.8C89.6,90.4,90,90.3,90.5,90.4z"/>
			<path class="st0" d="M14.2,90.9c0.4,0.2,0.8,0.5,0.7,1.3c-0.3,0.2-0.6,0.3-1.2,0.3c0-0.5-0.3-0.5-0.2-1
				C13.7,91.2,14.2,91.3,14.2,90.9z"/>
			<path class="st0" d="M85.7,91.2c0.2,0,0.5,0,0.7,0C87.7,93,84.5,93,85.7,91.2z"/>
			<path class="st0" d="M17.6,92c1-0.2,1.4,0.2,1.2,1.3c-0.7,0.2-0.5,0.2-1.2,0C17.6,92.8,17.6,92.4,17.6,92z"/>
			<path class="st0" d="M82.6,92c0,0.5,0.3,0.5,0.2,1c-0.5,0-0.3,0.7-1,0.5C81.2,93,81.3,91.6,82.6,92z"/>
			<path class="st0" d="M78.7,92.5c0.1,0.6,0,1-0.2,1.3c-0.3,0-0.6,0-1,0C77.1,92.8,77.9,92,78.7,92.5z"/>
			<path class="st0" d="M21.7,94.3c-0.2-0.3-0.3-0.7-0.2-1.3C22.6,92.1,23.5,94.5,21.7,94.3z"/>
			<path class="st0" d="M73.4,94.3c0-0.3,0-0.5,0-0.8C75.2,92.2,75.2,95.6,73.4,94.3z"/>
			<path class="st0" d="M26,93.5c0.4,0.2,0.8,0.5,0.7,1.3c-0.3,0.2-0.6,0.3-1.2,0.3C25.2,94.2,25.5,94,26,93.5z"/>
			<path class="st0" d="M70.1,93.5c0.2,0.1,0.4,0.3,0.7,0.3c0,0.6,0,1.2-0.5,1.3C69.3,95.2,69.5,93.6,70.1,93.5z"/>
			<path class="st0" d="M138.4,93.5c0.7,0.3,1.1,0.7,0.7,1.5c-0.6,0.1-0.9,0-1.2-0.3C137.8,94,138.3,94,138.4,93.5z"/>
			<path class="st0" d="M152.6,93.8c0.2,0,0.5,0,0.7,0c0.2,0.3,0.3,0.7,0.2,1.3c-0.7,0.2-0.5,0.2-1.2,0
				C152.3,94.4,152.4,94.1,152.6,93.8z"/>
			<path class="st0" d="M65.7,94c0.8-0.2,0.7,0.4,1.2,0.5c-0.1,0.4-0.4,0.6-0.5,1c-0.4,0-0.5-0.3-1-0.3C65.4,94.7,65.5,94.3,65.7,94
				z"/>
			<path class="st0" d="M29.6,94.3c0.8-0.2,0.7,0.4,1.2,0.5c-0.1,0.4-0.4,0.6-0.5,1c-0.4,0-0.5-0.3-1-0.3
				C29.3,95,29.4,94.6,29.6,94.3z"/>
			<path class="st0" d="M62.9,95.3c-0.5,0-0.3,0.7-1,0.5c-0.1-0.2-0.2-0.5-0.5-0.5C61.4,94,62.9,94,62.9,95.3z"/>
			<path class="st0" d="M33.7,94.5c0.2,0,0.5,0,0.7,0c0.2,0.3,0.3,0.7,0.2,1.3c-0.7,0.2-0.5,0.2-1.2,0
				C33.4,95.2,33.5,94.8,33.7,94.5z"/>
			<path class="st0" d="M38.8,95.8c-0.5,0-0.3,0.7-1,0.5c-0.1-0.2-0.2-0.5-0.5-0.5C37.3,94.6,38.8,94.6,38.8,95.8z"/>
			<path class="st0" d="M41.7,96.3c-0.2-0.3-0.3-0.7-0.2-1.3C42.7,94.1,43.5,96.6,41.7,96.3z"/>
			<path class="st0" d="M50.8,95.8c-0.5,0-0.3,0.7-1,0.5c-0.1-0.2-0.2-0.5-0.5-0.5C49.3,94.6,50.9,94.6,50.8,95.8z"/>
			<path class="st0" d="M54.9,95.8c-0.5,0.1-0.4,0.7-1.2,0.5C52.6,95,55,94.1,54.9,95.8z"/>
			<path class="st0" d="M57.8,94.8c0.2,0,0.5,0,0.7,0C59.8,96.6,56.6,96.6,57.8,94.8z"/>
			<path class="st0" d="M45.8,95c0.2,0,0.5,0,0.7,0c0.2,0.3,0.3,0.7,0.2,1.3c-0.4,0-0.5,0.3-1,0.3C45.4,96.3,45.4,95.4,45.8,95z"/>
			<path class="st0" d="M149.3,95.8c0.7-0.2,0.5,0.5,1,0.5c0,0.7-0.4,1.1-1.2,1C148.7,96.6,148.9,96.4,149.3,95.8z"/>
			<path class="st0" d="M141.3,96.3c0.6,0,0.9,0.4,1,1c-0.5,0.1-0.4,0.7-1.2,0.5C140.6,97.3,141,96.7,141.3,96.3z"/>
			<path class="st0" d="M146.1,96.6c0,0.4,0,0.9,0,1.3c-0.4,0-0.8,0-1.2,0c0-0.4,0-0.9,0-1.3C145.7,96.4,145.4,96.4,146.1,96.6z"/>
		</g>
		<g>
			<g>
				<path class="st11" d="M198.9,44.5c-0.2,0.6-0.8,0.3-0.8,1c0,0.6,0.4,0.4,0.7,0.9c-0.1,0.5-0.9,0.3-0.9,0.8
					c-0.2,0.8,0.6,0.6,0.7,1c-0.2,0.7-0.8,0.3-0.9,1c-0.1,0.8,0.6,0.4,0.7,1.2c-0.1,0.5-0.8,0.2-0.9,0.8c-0.1,0.7,0.4,0.5,0.7,1.1
					c-0.2,0.6-0.9,0.4-0.9,1.1c0,0.6,0.4,0.5,0.8,0.9c-0.1,0.8-0.9,0.5-0.9,1.2c-0.1,0.7,0.4,0.4,0.7,1.1c-0.3,0.6-0.8,0.3-0.9,1
					c-0.1,0.7,0.6,0.5,0.7,1.2c-0.4,0.6-0.9,0.3-0.9,1c-0.1,0.6,0.5,0.5,0.7,1.1c-0.1,0.6-0.9,0.4-0.9,1c0,0.5,0.2,0.7,0.8,0.9
					c-0.1,0.6-0.4,0.8-0.7,0.9c-0.9,0.3-3.5-0.2-5.4-0.4c-20.8-1.7-42.7-2.9-63.9-4.5c0.3-1.1-0.8-0.8-0.8-1.3
					c0.2-0.8,0.9-0.3,1-1.1c0.1-0.8-0.6-0.4-0.8-1.2c0.3-0.6,0.9-0.2,1-0.8c0.2-0.8-0.8-0.6-0.9-1.2c0.4-0.6,0.9-0.2,1-1
					c0.1-0.8-0.5-0.5-0.8-1.1c0.4-0.6,0.9-0.2,1-1c0.1-0.8-0.7-0.4-0.8-1.2c0.2-0.5,0.9-0.1,1-0.7c0.1-0.7-0.5-0.6-0.8-1.2
					c0.3-0.6,1-0.3,1-1c0.1-0.7-0.6-0.6-1-0.9c0.1-0.8,0.9-0.3,1-1c0.1-0.6-0.5-0.7-0.8-1c0-0.7,1-0.3,1-1.1c0.1-0.7-0.8-0.4-0.8-1
					c0.1-0.5,0.8-0.1,0.9-0.7c0.1-0.7-0.6-0.6-0.7-1c0.3-0.7,1.7-0.3,3.1-0.2c2.8,0.2,6.2,0.4,8.5,0.6c18.5,1.5,39.6,2.7,58.1,4.1
					C198.3,43.8,198.5,44.2,198.9,44.5z"/>
			</g>
			<g>
				<path class="st5" d="M140.8,43.1c-0.6,4-1.3,8-1.9,12c-0.6,0-1.2-0.1-1.8-0.1c-0.3-2.5-0.5-5.1-0.9-7.6
					c-0.7,2.4-1.1,5.1-1.6,7.6c-0.6,0.1-0.9-0.2-1.5-0.2c0.6-4,1.2-8.1,1.9-12c0.7,0.1,1.2-0.1,1.9,0c0.4,2,0.7,4,1.3,5.9
					c0.4-1.8,0.6-3.8,0.8-5.8C139.3,42.9,140.3,43,140.8,43.1z"/>
				<path class="st5" d="M144.6,43.2c1.6-0.2,2.4,2.3,2.3,4.7c-0.1,2.8-1.4,8-3.8,7.7c-1.7-0.2-2.1-3.4-1.8-6.4
					C141.7,46.8,142.8,43.4,144.6,43.2z M143.8,52.2c1.2-0.8,2.4-5.2,1.1-6.3C143.5,46.6,142.5,50.7,143.8,52.2z"/>
				<path class="st5" d="M150.2,44c0.1,0,0.1,0,0.2,0c-0.3,2.2-0.4,4.6-0.5,6.9c0.7-1.6,1.1-3.5,1.7-5.2c0.5,0.1,1.2-0.1,1.5,0.2
					c0,1.9,0.2,3.7,0.4,5.4c0.7-2.1,1.2-4.4,1.7-6.7c0.6,0.1,1.2,0.1,1.7,0.3c-1,3.9-2.1,7.6-3,11.5c-0.7,0-1.4-0.1-2.1-0.1
					c0-1.9-0.1-3.7-0.2-5.5c-0.8,1.6-1.2,3.7-1.9,5.4c-0.6,0-1.2-0.1-1.9-0.1c0.2-4,0.4-8,0.7-11.9C149.1,44.1,149.8,44.2,150.2,44z
					"/>
				<path class="st5" d="M160.1,44.6c0.2,1.5,0.4,2.9,0.4,4.5c1-1.2,1.5-2.9,2.3-4.3c0.6,0.2,1.2,0.4,1.7,0.6c-0.7,2-2.9,4-3.5,6.2
					c-0.5,1.6-0.1,3.3-0.5,5.4c-0.6,0-1.2-0.1-1.9-0.1c1-4.8-0.1-8.4-0.7-12.4C158.7,44.6,159.3,44.5,160.1,44.6z"/>
				<path class="st5" d="M177.7,46c1.6-0.2,2.4,2.3,2.3,4.7c-0.1,2.8-1.4,8-3.8,7.7c-1.7-0.2-2.1-3.4-1.8-6.4
					C174.8,49.6,175.9,46.2,177.7,46z M176.9,54.9c1.2-0.8,2.4-5.2,1.1-6.3C176.6,49.4,175.6,53.4,176.9,54.9z"/>
				<path class="st5" d="M173.7,46.3c-0.9,2.6-0.7,11-3.1,12.1c-2.5,1.1-4.4-0.9-4.5-3.3c2-0.6,1.6,1.8,3.1,2c1.9-1.7,1.3-6,1.6-9.3
					c-0.8-0.2-1.8-0.3-2.8-0.4c0.2-0.6,0.4-1.1,0.5-1.8C170.3,45.8,172,46,173.7,46.3z"/>
				<path class="st5" d="M184.5,54.5c0.2,1.7,0.9,3,1.1,4.7c-0.8-0.1-1.3,0.1-2,0.1c-0.3-1.7-0.5-3.4-1-4.9
					c-0.5,1.2-0.5,3.1-0.9,4.5c-0.4,0.1-1,0-1.3,0.2c0.4-3.9,1.2-8.2,1.9-12.1c1.8-0.5,3.9,1.3,4.1,3.1
					C186.7,51.8,185.4,53.3,184.5,54.5z M183.3,49c-0.3,1.2-0.2,2.8-0.5,4C184.6,52.6,185.6,49.2,183.3,49z"/>
				<path class="st5" d="M189.8,47.6c-0.1,1.5-0.1,2.9-0.2,4.4c0.9-1.3,1.8-2.7,2.6-4.2c0.6,0.3,1.3,0.5,1.9,0.8
					c-1.2,1.7-2.4,3.5-3.7,5.2c0.6,1.9,0.9,4.1,1.5,6c-0.4,0.3-1.2,0.1-1.9,0.1c-0.3-1.6-0.6-3.2-0.9-4.8c-0.4,1.3-0.5,2.9-0.8,4.5
					c-0.6,0-0.9-0.2-1.5-0.2c0.5-3.9,0.8-8,1.4-11.8C188.7,47.5,189.3,47.6,189.8,47.6z"/>
			</g>
		</g>
	</g>
</g>
</svg>
