<?xml version="1.0" encoding="utf-8"?>
<!-- Generator: Adobe Illustrator 24.0.1, SVG Export Plug-In . SVG Version: 6.00 Build 0)  -->
<svg version="1.1" id="front" xmlns="http://www.w3.org/2000/svg" xmlns:xlink="http://www.w3.org/1999/xlink" x="0px" y="0px"
	 viewBox="0 0 218.3 200.4" style="enable-background:new 0 0 218.3 200.4;" xml:space="preserve">
<style type="text/css">
	.st0{fill-rule:evenodd;clip-rule:evenodd;fill:#39A9DC;}
	.st1{fill-rule:evenodd;clip-rule:evenodd;fill:#3A6DB0;}
	.st2{fill-rule:evenodd;clip-rule:evenodd;fill:#FFFFFF;}
	.st3{fill-rule:evenodd;clip-rule:evenodd;fill:#E2007A;}
	.st4{fill-rule:evenodd;clip-rule:evenodd;fill:#BDDDF2;}
	.st5{fill-rule:evenodd;clip-rule:evenodd;}
	.st6{fill-rule:evenodd;clip-rule:evenodd;fill:#C20063;}
	.st7{fill-rule:evenodd;clip-rule:evenodd;fill:#E6418D;}
	.st8{fill-rule:evenodd;clip-rule:evenodd;fill:#E52D87;}
	.st9{fill-rule:evenodd;clip-rule:evenodd;fill:#1FA22E;}
	.st10{fill-rule:evenodd;clip-rule:evenodd;fill:#009D30;}
	.st11{fill-rule:evenodd;clip-rule:evenodd;fill:#0090D4;}
</style>
<g>
	<g>
		<path class="st0" d="M139.4,7.7c0.2,0,0.5,0,0.7,0c0.2,0.3,0.3,0.7,0.2,1.2c-0.4,0-0.5,0.3-1,0.2C139.1,8.9,139.1,8.1,139.4,7.7z"
			/>
		<path class="st0" d="M141.8,7.7c0.6,0,1.2,0,1.2,0.5c0.1,0.8-0.5,0.8-1.2,0.7C141.7,8.2,141.7,8.5,141.8,7.7z"/>
		<path class="st0" d="M144.2,8.7c0-0.2,0-0.5,0-0.7C145.9,6.7,145.9,10,144.2,8.7z"/>
		<path class="st0" d="M147.3,7.7c0.4,0.1,0.6,0.4,1,0.5c0,0.4-0.3,0.5-0.2,1c-0.6,0.1-0.9,0-1.2-0.2C146.6,8.2,147.2,8.2,147.3,7.7
			z"/>
		<path class="st0" d="M136.6,8c0.4,0,0.8,0,1.2,0c0,0.4,0,0.8,0,1.2c-0.7,0.2-0.5,0.2-1.2,0C136.6,8.8,136.6,8.4,136.6,8z"/>
		<path class="st0" d="M135.2,8.2c0.5,0.9-0.3,1.7-1.2,1.2C133.8,8.5,134.2,8.1,135.2,8.2z"/>
		<path class="st0" d="M149.9,8.2c0.2,0.1,0.4,0.3,0.7,0.2c0,0.6,0,1.2-0.5,1.2C149.1,9.9,149.3,8.4,149.9,8.2z"/>
		<path class="st0" d="M131.4,9.7c0-0.2,0-0.5,0-0.7C133.1,7.7,133.1,11,131.4,9.7z"/>
		<path class="st0" d="M130.2,9.2c0,0.4,0,0.8,0,1.2c-0.4,0-0.8,0-1.2,0C128.5,9.5,129.3,8.7,130.2,9.2z"/>
		<path class="st0" d="M152.1,9c0.6,0,1.2,0,1.2,0.5c0.1,0.8-0.5,0.8-1.2,0.7C151.9,9.4,151.9,9.7,152.1,9z"/>
		<path class="st0" d="M154.7,9.4c0.2,0,0.5,0,0.7,0C156.6,11.2,153.4,11.2,154.7,9.4z"/>
		<path class="st0" d="M158.2,10.9c0.1,0.8-0.5,0.8-1.2,0.7c0-0.4-0.3-0.5-0.2-1C157.1,10.3,158.2,10.2,158.2,10.9z"/>
		<path class="st0" d="M160.6,12.4c-0.5,0.5-1.1,0-1.4-0.2C159.2,10.8,160.9,11,160.6,12.4z"/>
		<path class="st0" d="M162,12.1c0.2,0,0.5,0,0.7,0c0.2,0.3,0.3,0.7,0.2,1.2c-0.7,0.2-0.5,0.2-1.2,0C161.7,12.8,161.8,12.4,162,12.1
			z"/>
		<path class="st0" d="M164.4,13.1c0.2,0,0.5,0,0.7,0c0.2,0.3,0.3,0.7,0.2,1.2c-0.4,0-0.5,0.3-1,0.2
			C164.1,14.2,164.1,13.4,164.4,13.1z"/>
		<path class="st0" d="M167.8,14.6c0.1,0.8-0.3,1.2-1,1.2C165.8,15.2,166.8,13.7,167.8,14.6z"/>
		<path class="st0" d="M169.9,15.5c0.5,0.9-0.3,1.7-1.2,1.2C168.5,15.8,168.9,15.4,169.9,15.5z"/>
		<path class="st0" d="M171.1,16.7c0.6-0.1,0.9,0,1.2,0.2c0,0.3,0,0.6,0,1C171.4,18.4,170.6,17.6,171.1,16.7z"/>
		<path class="st0" d="M173.5,19.4c-0.2-0.3-0.3-0.7-0.2-1.2C174.4,17.4,175.3,19.6,173.5,19.4z"/>
		<path class="st0" d="M175.4,19.7c0.4,0,0.8,0,1.2,0c0,0.4,0,0.8,0,1.2c-0.7,0.2-0.5,0.2-1.2,0C175.4,20.5,175.4,20.1,175.4,19.7z"
			/>
		<path class="st0" d="M178.7,22.3c-0.5,0.5-1.1,0.1-1.4-0.2C177.2,20.8,178.9,21,178.7,22.3z"/>
		<path class="st0" d="M180.6,23.1c0.1,0.6,0,0.9-0.2,1.2C178.5,24.5,179.4,22.3,180.6,23.1z"/>
		<path class="st0" d="M182.5,25.7c-0.5,0-0.3,0.7-1,0.5c-0.1-0.2-0.2-0.4-0.5-0.5C181,24.6,182.7,24.4,182.5,25.7z"/>
		<path class="st0" d="M183.2,26.7c0.2,0,0.5,0,0.7,0c0.2,0.3,0.3,0.7,0.2,1.2c-0.4,0-0.5,0.3-1,0.2C182.9,27.9,182.9,27,183.2,26.7
			z"/>
		<path class="st0" d="M184.4,29.9c0-0.2,0-0.5,0-0.7C186.1,27.9,186.1,31.1,184.4,29.9z"/>
		<path class="st0" d="M186.1,31.1c0.2,0,0.5,0,0.7,0c0.2,0.3,0.3,0.7,0.2,1.2c-0.7,0.2-0.5,0.2-1.2,0
			C185.8,31.8,185.9,31.4,186.1,31.1z"/>
		<path class="st0" d="M188.2,34.7c-0.4,0-0.8,0-1.2,0c0-0.4,0-0.8,0-1.2C187.9,33.1,188.7,33.9,188.2,34.7z"/>
		<path class="st0" d="M188.5,35.7c0.7,0,1,0.4,1,1.2c-0.3,0.2-0.6,0.3-1.2,0.2C187.9,36.4,188,36.2,188.5,35.7z"/>
		<path class="st0" d="M190.4,38.9c0.1,0.8-0.5,0.8-1.2,0.7c0-0.4-0.3-0.5-0.2-1C189.2,38.3,190.4,38.2,190.4,38.9z"/>
		<path class="st0" d="M191.1,40.8c0.2,0.7,0.2,0.5,0,1.2c-0.6,0.1-0.9,0-1.2-0.2c0-0.2,0-0.5,0-0.7
			C190.2,40.9,190.5,40.8,191.1,40.8z"/>
		<path class="st0" d="M190.8,43.3c0.4,0,0.5,0.3,1,0.2c0.1,0.6,0,0.9-0.2,1.2C190.4,44.9,190.1,43.8,190.8,43.3z"/>
		<path class="st0" d="M191.1,45.9c0.2,0,0.5,0,0.7,0c0.2,0.3,0.3,0.7,0.2,1.2c-0.4,0-0.5,0.3-1,0.2
			C190.7,47.1,190.7,46.2,191.1,45.9z"/>
		<path class="st0" d="M191.1,48.6c0.2,0,0.5,0,0.7,0c0.2,0.3,0.3,0.7,0.2,1.2c-0.7,0.2-0.5,0.2-1.2,0
			C190.8,49.3,190.9,48.9,191.1,48.6z"/>
		<path class="st0" d="M190.6,51.3c0.4,0,0.8,0,1.2,0c0.2,0.7,0.2,0.5,0,1.2c-0.4,0-0.8,0-1.2,0C190.6,52.1,190.6,51.7,190.6,51.3z"
			/>
		<path class="st0" d="M190.1,53.7c0.2,0,0.5,0,0.7,0c0.2,0.3,0.3,0.7,0.2,1.2c-0.7,0.2-0.5,0.2-1.2,0
			C189.8,54.4,189.9,54,190.1,53.7z"/>
		<path class="st0" d="M190.1,56.4c0.1,0.8-0.3,1.2-1,1.2C188.2,57.1,189.1,55.5,190.1,56.4z"/>
		<path class="st0" d="M187.7,58.3c0.2,0,0.5,0,0.7,0C189.7,60.1,186.5,60.1,187.7,58.3z"/>
		<path class="st0" d="M187,60.5c0.2,0.7,0.2,0.5,0,1.2c-0.6,0.1-0.9,0-1.2-0.2c0-0.2,0-0.5,0-0.7C186.1,60.6,186.5,60.5,187,60.5z"
			/>
		<path class="st0" d="M185.4,62.5c0.5,0.9-0.3,1.7-1.2,1.2C184,62.7,184.4,62.3,185.4,62.5z"/>
		<path class="st0" d="M182.3,65.4c0-0.2,0-0.5,0-0.7C184,63.4,184,66.7,182.3,65.4z"/>
		<path class="st0" d="M181.6,66.1c0.2,0.7,0.2,0.5,0,1.2c-0.6,0.1-0.9,0-1.2-0.2c0-0.2,0-0.5,0-0.7C180.6,66.2,181,66.1,181.6,66.1
			z"/>
		<path class="st0" d="M179.4,67.6c0.2,0.7,0.2,0.5,0,1.2c-0.6,0.1-0.9,0-1.2-0.2c0-0.2,0-0.5,0-0.7
			C178.5,67.6,178.9,67.5,179.4,67.6z"/>
		<path class="st0" d="M177,68.8c0.2,0.3,0.3,0.7,0.2,1.2C176.1,70.8,175.2,68.6,177,68.8z"/>
		<path class="st0" d="M175.1,71c-0.2,0.1-0.4,0.2-0.5,0.5c-0.4,0-0.5-0.3-1-0.2C173.3,69.7,175.2,69.8,175.1,71z"/>
		<path class="st0" d="M171.8,71c0.6,0,0.9,0.4,1,1c-0.5,0.1-0.4,0.7-1.2,0.5C171,71.9,171.5,71.4,171.8,71z"/>
		<path class="st0" d="M169.7,73.4C167.3,72.2,171.6,71.5,169.7,73.4L169.7,73.4z"/>
		<path class="st0" d="M166.8,72.9c0.2,0,0.5,0,0.7,0c0.2,0.3,0.3,0.7,0.2,1.2c-0.7,0.2-0.5,0.2-1.2,0
			C166.5,73.6,166.6,73.2,166.8,72.9z"/>
		<path class="st0" d="M164,74.6c0-0.2,0-0.5,0-0.7C165.7,72.7,165.7,75.9,164,74.6z"/>
		<path class="st0" d="M161.8,74.2c0.2,0,0.5,0,0.7,0C163.8,75.9,160.6,75.9,161.8,74.2z"/>
		<path class="st0" d="M143.2,77.1c0.2,0.1,0.4,0.3,0.7,0.2c0,0.6,0,1.2-0.5,1.2C142.4,78.7,142.6,77.2,143.2,77.1z"/>
		<path class="st0" d="M138.9,78.5c-0.5,0-0.3,0.7-1,0.5c-0.1-0.2-0.2-0.4-0.5-0.5C137.5,77.3,139,77.3,138.9,78.5z"/>
		<path class="st0" d="M141.3,77.6c0.2,0.7,0.2,0.5,0,1.2c-0.6,0.1-0.9,0-1.2-0.2c0-0.2,0-0.5,0-0.7
			C140.4,77.6,140.8,77.5,141.3,77.6z"/>
		<path class="st0" d="M133.5,77.8c0.2,0.3,0.3,0.7,0.2,1.2C132.5,79.8,131.6,77.6,133.5,77.8z"/>
		<path class="st0" d="M135.1,77.8c0.6,0,1.2,0,1.2,0.5c0.1,0.8-0.5,0.8-1.2,0.7C135,78.3,135,78.6,135.1,77.8z"/>
		<path class="st0" d="M129.9,78c0.4,0,0.8,0,1.2,0c0,0.4,0,0.8,0,1.2c-0.7,0.2-0.5,0.2-1.2,0C129.9,78.9,129.9,78.5,129.9,78z"/>
		<path class="st0" d="M71.6,79.2c0.8-0.1,1.1,0.3,1.2,1c-0.5,0-0.3,0.7-1,0.5c-0.1-0.2-0.2-0.4-0.5-0.5
			C71.3,79.8,71.7,79.7,71.6,79.2z"/>
		<path class="st0" d="M75.2,79.2c0.2,0.7,0.2,0.5,0,1.2c-0.6,0.1-0.9,0-1.2-0.2c0-0.2,0-0.5,0-0.7C74.3,79.3,74.6,79.2,75.2,79.2z"
			/>
		<path class="st0" d="M78.2,79.2c0.2,0.7,0.2,0.5,0,1.2c-0.6,0.1-0.9,0-1.2-0.2c0-0.2,0-0.5,0-0.7C77.3,79.3,77.6,79.2,78.2,79.2z"
			/>
		<path class="st0" d="M70.2,80c0.1,0.8-0.5,0.8-1.2,0.7c0-0.4-0.3-0.5-0.2-1C69.1,79.4,70.2,79.3,70.2,80z"/>
		<path class="st0" d="M41.9,87.3c0.2,0.1,0.4,0.3,0.7,0.2c0,0.6,0,1.2-0.5,1.2C41.1,88.9,41.3,87.4,41.9,87.3z"/>
		<path class="st0" d="M39.3,88.3c0.2,0,0.5,0,0.7,0c0.2,0.3,0.3,0.7,0.2,1.2c-0.4,0-0.5,0.3-1,0.2C39,89.4,39,88.6,39.3,88.3z"/>
		<path class="st0" d="M37.9,89.5c0.1,0.8-0.3,1.2-1,1.2c-0.1-0.2-0.2-0.4-0.5-0.5C36.4,89.4,37.3,89,37.9,89.5z"/>
		<path class="st0" d="M34.5,90.2c0.4,0,0.5,0.3,1,0.2c0.1,0.6,0,0.9-0.2,1.2C34.1,91.8,33.8,90.7,34.5,90.2z"/>
		<path class="st0" d="M32.2,91.4c0.2,0,0.5,0,0.7,0C34.1,93.2,30.9,93.2,32.2,91.4z"/>
		<path class="st0" d="M31,93.6c-0.5,0-0.3,0.7-1,0.5c-0.1-0.2-0.2-0.4-0.5-0.5C29.5,92.4,31,92.4,31,93.6z"/>
		<path class="st0" d="M27.6,94.1c0.8-0.2,0.7,0.4,1.2,0.5c-0.1,0.4-0.4,0.6-0.5,1c-0.4,0-0.5-0.3-1-0.2
			C27.3,94.8,27.4,94.4,27.6,94.1z"/>
		<path class="st0" d="M26.5,95.6c0.1,0.6,0,0.9-0.2,1.2c-0.3,0-0.6,0-1,0C24.8,95.9,25.6,95.1,26.5,95.6z"/>
		<path class="st0" d="M24.3,97c0.1,0.8-0.3,1.2-1,1.2c-0.1-0.2-0.2-0.4-0.5-0.5C22.9,96.8,23.6,96.7,24.3,97z"/>
		<path class="st0" d="M21.2,98.2c0.4,0,0.5,0.3,1,0.2c0.1,0.6,0,0.9-0.2,1.2C20.8,99.8,20.5,98.8,21.2,98.2z"/>
		<path class="st0" d="M20,99.9c0.1,0.6,0,0.9-0.2,1.2c-0.3,0-0.6,0-1,0C18.4,100.3,19.2,99.5,20,99.9z"/>
		<path class="st0" d="M16.9,101.4c0.2,0,0.5,0,0.7,0c0.2,0.3,0.3,0.7,0.2,1.2c-0.7,0.2-0.5,0.2-1.2,0
			C16.6,102.1,16.7,101.7,16.9,101.4z"/>
		<path class="st0" d="M15,103.1c0.2,0,0.5,0,0.7,0C17,104.9,13.8,104.9,15,103.1z"/>
		<path class="st0" d="M14.3,106c-0.5,0-0.3,0.7-1,0.5c-0.1-0.2-0.2-0.4-0.5-0.5C12.9,104.8,14.4,104.8,14.3,106z"/>
		<path class="st0" d="M178.2,107.4c4.8,3.7,10.7,6.3,15.7,9.8c-0.5,1.7-1.6,2.7-2.2,4.3c-5.4-4.6-10-10-15.4-14.6
			c8.8,0.3,18.6,1.7,28.2,2.5c-2.1,2.9-5.1,5.1-7.1,8.1C190.8,114.3,184.5,110.8,178.2,107.4z"/>
		<path class="st0" d="M11.7,106.8c0.4,0.2,0.8,0.5,0.7,1.2c-0.3,0.2-0.6,0.3-1.2,0.2c0-0.4-0.3-0.5-0.2-1
			C11.2,107,11.6,107.1,11.7,106.8z"/>
		<path class="st0" d="M10.8,109.2c0,0.4-0.3,0.5-0.2,1c-0.6,0.1-0.9,0-1.2-0.2c0-0.2,0-0.5,0-0.7C9.6,108.9,10.5,108.9,10.8,109.2z
			"/>
		<path class="st0" d="M8.9,110.9c0,0.4,0.3,0.5,0.2,1c-0.5,0-0.3,0.7-1,0.5C7.5,111.9,7.5,110.6,8.9,110.9z"/>
		<path class="st0" d="M7.4,113.1c0,0.4,0.3,0.5,0.2,1c-0.2,0.1-0.4,0.2-0.5,0.5c-0.7,0-1-0.4-1-1.2C6.5,113.1,6.9,113,7.4,113.1z"
			/>
		<path class="st0" d="M6.2,116.7c-0.3,0-0.6,0-1,0c-0.2-0.3-0.3-0.7-0.2-1.2C5.9,115,6.7,115.8,6.2,116.7z"/>
		<path class="st0" d="M202.8,118.2c0.4,0,0.8,0,1.2,0c0,0.4,0,0.8,0,1.2c-0.7,0.2-0.5,0.2-1.2,0C202.8,119,202.8,118.6,202.8,118.2
			z"/>
		<path class="st0" d="M5.3,118.7c-0.5,0-0.3,0.7-1,0.5c-0.1-0.2-0.2-0.4-0.5-0.5C3.8,117.5,5.3,117.5,5.3,118.7z"/>
		<path class="st0" d="M205.9,119.8c0,0.4,0.3,0.5,0.2,0.9c-0.3,0.3-1.1,0.3-1.4,0c0-0.2,0-0.5,0-0.7
			C205,119.9,205.3,119.8,205.9,119.8z"/>
		<path class="st0" d="M208,122.4c-0.2,0.1-0.4,0.2-0.5,0.5C205.4,122.7,207.8,120.3,208,122.4z"/>
		<path class="st0" d="M3.1,120.1c0.2,0,0.5,0,0.7,0c0.2,0.3,0.3,0.7,0.2,1.2c-0.4,0-0.5,0.3-1,0.2C2.8,121.3,2.8,120.4,3.1,120.1z"
			/>
		<path class="st0" d="M209,123.1c0.7,0.2,1.1,0.7,0.7,1.4c-0.5,0.1-0.9,0-1.2-0.2C208.3,123.6,208.9,123.6,209,123.1z"/>
		<path class="st0" d="M2.4,122.6c0.7,0,1,0.4,1,1.2c-0.3,0.2-0.6,0.3-1.2,0.2C1.9,123.3,2,123.1,2.4,122.6z"/>
		<path class="st0" d="M211.3,125.2c0.2,0.7,0.2,0.5,0,1.2c-0.5,0.1-0.9,0-1.2-0.2c0-0.2,0-0.5,0-0.7
			C210.4,125.3,210.8,125.2,211.3,125.2z"/>
		<path class="st0" d="M1.5,125.2c0.6-0.1,0.9,0,1.2,0.2c0,0.3,0,0.6,0,1C1.8,126.9,1,126.1,1.5,125.2z"/>
		<path class="st0" d="M213,127.8c0.1,0.7-0.5,0.8-1.2,0.7c0-0.4-0.3-0.5-0.2-0.9C211.9,127.3,213,127.2,213,127.8z"/>
		<path class="st0" d="M213.2,129.5c0.2,0,0.5,0,0.7,0c0.2,0.3,0.3,0.6,0.2,1.2c-0.4,0-0.5,0.3-0.9,0.2
			C212.9,130.6,212.9,129.8,213.2,129.5z"/>
		<path class="st0" d="M2.4,128.2c0,0.4-0.3,0.5-0.2,1c-0.6,0.1-0.9,0-1.2-0.2c0-0.2,0-0.5,0-0.7C1.3,127.8,2.1,127.8,2.4,128.2z"/>
		<path class="st0" d="M214.2,131.8c0.8-0.2,0.7,0.4,1.2,0.5c-0.2,0.7-0.7,1.1-1.4,0.7C213.9,132.5,214,132.1,214.2,131.8z"/>
		<path class="st0" d="M1.7,130.3c0.4,0.2,0.8,0.5,0.7,1.2c-0.3,0.2-0.6,0.3-1.2,0.2c0-0.4-0.3-0.5-0.2-1
			C1.2,130.6,1.7,130.7,1.7,130.3z"/>
		<path class="st0" d="M215.1,134.2c0.4,0,0.5,0.3,0.9,0.2c0.1,0.5,0,0.9-0.2,1.2C214.7,135.7,214.4,134.7,215.1,134.2z"/>
		<path class="st0" d="M2.7,134c-0.5,0.1-0.4,0.7-1.2,0.5C0.4,133.3,2.7,132.4,2.7,134z"/>
		<path class="st0" d="M216.5,136.8c0.5,0.9-0.3,1.6-1.2,1.2C215.2,137,215.6,136.6,216.5,136.8z"/>
		<path class="st0" d="M1.7,135.7c0.2,0,0.5,0,0.7,0c0.3,0.3,0.3,1.1,0,1.5c-0.4,0-0.5-0.3-1-0.2C1.4,136.4,1.5,136,1.7,135.7z"/>
		<path class="st0" d="M217,139.4c0,0.4,0,0.8,0,1.2c-0.4,0-0.8,0-1.2,0c0-0.4,0-0.8,0-1.2C216.6,139.2,216.3,139.2,217,139.4z"/>
		<path class="st0" d="M2.2,138.4c0.6,0,1.2,0,1.2,0.5c0.1,0.8-0.5,0.8-1.2,0.7C2,138.8,2,139.1,2.2,138.4z"/>
		<path class="st0" d="M217.5,142.6c-0.5,0-0.3,0.6-0.9,0.5c-0.1-0.2-0.2-0.4-0.5-0.5C216,141.5,217.5,141.5,217.5,142.6z"/>
		<path class="st0" d="M2.9,141.8c0-0.2,0-0.5,0-0.7C4.6,139.8,4.6,143,2.9,141.8z"/>
		<path class="st0" d="M4.6,143c0.7,0.3,1.1,0.7,0.7,1.5c-0.6,0.1-0.9,0-1.2-0.2C3.9,143.4,4.5,143.5,4.6,143z"/>
		<path class="st0" d="M216.5,144.3c0.2,0,0.5,0,0.7,0C218.5,146,215.3,146,216.5,144.3z"/>
		<path class="st0" d="M6.5,145.4c0,0.4,0.3,0.5,0.2,1c-0.5,0-0.3,0.7-1,0.5C5.1,146.4,5.2,145.1,6.5,145.4z"/>
		<path class="st0" d="M217.2,146.9c0.2,0.3,0.3,0.6,0.2,1.2C216.3,148.8,215.4,146.7,217.2,146.9z"/>
		<path class="st0" d="M7.4,149.1C5.1,147.9,9.3,147.1,7.4,149.1L7.4,149.1z"/>
		<path class="st0" d="M216.1,149.5c0.6,0,1.1,0,1.2,0.5c0.1,0.7-0.5,0.8-1.2,0.7C215.9,149.9,215.9,150.2,216.1,149.5z"/>
		<path class="st0" d="M9.6,150.8c-0.5,0-0.3,0.7-1,0.5c-0.1-0.2-0.2-0.4-0.5-0.5C8.1,149.6,9.6,149.6,9.6,150.8z"/>
		<path class="st0" d="M216.8,153.2c-0.3,0-0.6,0-0.9,0c-0.2-0.3-0.3-0.6-0.2-1.2C216.4,151.6,217.2,152.4,216.8,153.2z"/>
		<path class="st0" d="M9.8,152c0.6-0.1,0.9,0,1.2,0.2c0,0.3,0,0.6,0,1C10.1,153.7,9.3,152.9,9.8,152z"/>
		<path class="st0" d="M215.4,154.4c0.8-0.2,0.7,0.4,1.2,0.5c-0.1,0.3-0.3,0.6-0.5,0.9c-0.4,0-0.5-0.3-0.9-0.2
			C215,155,215.2,154.7,215.4,154.4z"/>
		<path class="st0" d="M11.7,153.9c0.2,0,0.5,0,0.7,0c0.2,0.3,0.3,0.7,0.2,1.2c-0.7,0.2-0.5,0.2-1.2,0
			C11.4,154.6,11.5,154.2,11.7,153.9z"/>
		<path class="st0" d="M14.6,155.9c0.1,0.6,0,0.9-0.2,1.2c-0.3,0-0.6,0-1,0C12.9,156.2,13.7,155.4,14.6,155.9z"/>
		<path class="st0" d="M215.6,158.2c-0.3,0-0.6,0-0.9,0c-0.2-0.3-0.3-0.6-0.2-1.2C215.3,156.5,216.1,157.3,215.6,158.2z"/>
		<path class="st0" d="M15.3,157.6c0.6-0.1,0.9,0,1.2,0.2c0,0.3,0,0.6,0,1C15.6,159.3,14.8,158.5,15.3,157.6z"/>
		<path class="st0" d="M214.6,159.3c0,0.4,0,0.8,0,1.2c-0.4,0-0.8,0-1.2,0c0-0.4,0-0.8,0-1.2C214.2,159.2,213.9,159.2,214.6,159.3z"
			/>
		<path class="st0" d="M17.4,159.3c0.2,0,0.5,0,0.7,0c0.2,0.3,0.3,0.7,0.2,1.2c-0.4,0-0.5,0.3-1,0.2
			C17.1,160.4,17.1,159.6,17.4,159.3z"/>
		<path class="st0" d="M213.5,161.7c0.1,0.8-0.3,1.1-0.9,1.2C211.5,162.3,212.5,160.8,213.5,161.7z"/>
		<path class="st0" d="M19.1,162c0-0.2,0-0.5,0-0.7C20.8,160,20.8,163.2,19.1,162z"/>
		<path class="st0" d="M21.7,162.2c0.4,0,0.5,0.3,1,0.2c0.1,0.6,0,0.9-0.2,1.2C21.2,163.7,21.1,162.9,21.7,162.2z"/>
		<path class="st0" d="M211.6,165C209.2,163.8,213.5,163.1,211.6,165L211.6,165z"/>
		<path class="st0" d="M23.6,163.7c0.4,0,0.8,0,1.2,0c0.2,0.7,0.2,0.5,0,1.2c-0.4,0-0.8,0-1.2,0C23.6,164.5,23.6,164.1,23.6,163.7z"
			/>
		<path class="st0" d="M26.5,164.6c0.2,0.1,0.4,0.3,0.7,0.2c0,0.6,0,1.2-0.5,1.2C25.7,166.3,25.9,164.8,26.5,164.6z"/>
		<path class="st0" d="M210.4,165.7c0,0.4,0.3,0.5,0.2,0.9c-0.3,0.3-1.1,0.3-1.4,0c0-0.2,0-0.5,0-0.7
			C209.5,165.7,209.8,165.6,210.4,165.7z"/>
		<path class="st0" d="M28.8,165.6c0.2,0.1,0.4,0.3,0.7,0.2c0,0.6,0,1.2-0.5,1.2C28.1,167.3,28.2,165.8,28.8,165.6z"/>
		<path class="st0" d="M31.9,166.6c0.8,1.2-1.4,2.1-1.2,0.2C31,166.6,31.4,166.5,31.9,166.6z"/>
		<path class="st0" d="M207.8,167.6c0.8-0.2,0.7,0.4,1.2,0.5c-0.1,0.3-0.3,0.6-0.5,0.9c-0.4,0-0.5-0.3-0.9-0.2
			C207.5,168.2,207.6,167.8,207.8,167.6z"/>
		<path class="st0" d="M34.5,168.3c-0.5,0-0.3,0.7-1,0.5c-0.1-0.2-0.2-0.4-0.5-0.5C33.1,167.1,34.6,167.1,34.5,168.3z"/>
		<path class="st0" d="M205.9,169.4c0.5-0.1,0.9,0,1.2,0.2c0,0.3,0,0.6,0,0.9C206.2,171.1,205.4,170.3,205.9,169.4z"/>
		<path class="st0" d="M204.9,171.1c0.2,0.7,0.2,0.5,0,1.2c-0.5,0.1-0.9,0-1.2-0.2c0-0.2,0-0.5,0-0.7
			C204,171.1,204.4,171,204.9,171.1z"/>
		<path class="st0" d="M203,172.7c0.1,0.8-0.3,1.1-0.9,1.2c-0.1-0.2-0.2-0.4-0.5-0.5C201.6,172.7,202.5,172.2,203,172.7z"/>
		<path class="st0" d="M200,173.9c0.4,0,0.5,0.3,0.9,0.2c0.1,0.5,0,0.9-0.2,1.2C199.4,175.4,199.4,174.6,200,173.9z"/>
		<path class="st0" d="M198.8,175.6c0,0.4,0,0.8,0,1.2c-0.4,0-0.8,0-1.2,0C197.1,175.9,197.9,175.1,198.8,175.6z"/>
		<path class="st0" d="M196.4,176.7c0.2,0.7,0.2,0.5,0,1.2c-0.5,0.1-0.9,0-1.2-0.2c0-0.2,0-0.5,0-0.7
			C195.5,176.8,195.9,176.7,196.4,176.7z"/>
		<path class="st0" d="M193.6,178.9C191.2,177.7,195.5,177,193.6,178.9L193.6,178.9z"/>
		<path class="st0" d="M191,178.1c0.4,0.2,0.8,0.4,0.7,1.2c-0.3,0.2-0.6,0.3-1.2,0.2C190.2,178.8,190.5,178.6,191,178.1z"/>
		<path class="st0" d="M188.1,180.3c-0.2-0.3-0.3-0.6-0.2-1.2C189.2,178.2,189.9,180.5,188.1,180.3z"/>
		<path class="st0" d="M186.7,180c0.1,0.7-0.5,0.8-1.2,0.7c0-0.4-0.3-0.5-0.2-0.9C185.6,179.5,186.7,179.4,186.7,180z"/>
		<path class="st0" d="M184.1,180c0,0.4,0,0.8,0,1.2c-0.4,0-0.8,0-1.2,0c0-0.4,0-0.8,0-1.2C183.7,179.9,183.4,179.9,184.1,180z"/>
		<path class="st0" d="M181.5,180.3c0.5,0.9-0.3,1.6-1.2,1.2C180.2,180.5,180.6,180.1,181.5,180.3z"/>
	</g>
	<g>
		<g>
			<path class="st1" d="M180.4,160.6c-0.5,1.2-1.6,0.6-1.6,1.9c0,1.2,0.8,0.9,1.5,1.8c-0.2,1-1.8,0.5-1.8,1.7
				c-0.4,1.5,1.2,1.2,1.5,2c-0.3,1.5-1.7,0.6-1.8,1.9c-0.2,1.5,1.1,0.9,1.5,2.5c-0.2,1-1.7,0.4-1.8,1.7c-0.2,1.3,0.9,1,1.5,2.3
				c-0.4,1.2-1.8,0.8-1.8,2.2c0,1.2,0.8,1,1.7,1.8c-0.2,1.6-1.7,0.9-1.9,2.4c-0.1,1.4,0.8,0.9,1.5,2.3c-0.7,1.3-1.7,0.6-1.8,1.9
				c-0.2,1.5,1.2,0.9,1.5,2.5c-0.7,1.2-1.7,0.6-1.8,1.9c-0.1,1.3,1.1,1,1.5,2.3c-0.2,1.1-1.7,0.7-1.8,1.9c-0.1,1,0.5,1.4,1.7,1.8
				c-0.1,1.2-0.8,1.5-1.4,1.7c-1.8,0.6-7.1-0.5-10.8-0.8c-41.9-3.4-86.1-5.9-128.9-9.2c0.7-2.2-1.7-1.7-1.7-2.7
				c0.5-1.7,1.9-0.6,2.1-2.1c0.2-1.6-1.2-0.8-1.7-2.5c0.7-1.3,1.8-0.4,2-1.7c0.3-1.7-1.7-1.2-1.9-2.5c0.8-1.3,1.9-0.4,2.1-1.9
				c0.1-1.5-1-0.9-1.7-2.3c0.8-1.3,1.9-0.5,2.1-1.9c0.2-1.6-1.3-0.9-1.7-2.5c0.4-1,1.8-0.2,2-1.5c0.3-1.5-1.1-1.1-1.7-2.5
				c0.6-1.2,1.9-0.6,2.1-1.9c0.1-1.3-1.3-1.2-1.9-1.8c0.2-1.6,1.8-0.5,2.1-1.9c0.3-1.3-1-1.5-1.7-2c0-1.5,2.1-0.7,2.1-2.1
				c0.2-1.4-1.6-0.9-1.7-2c0.3-1.1,1.7-0.2,1.8-1.5c0.2-1.3-1.2-1.2-1.5-2c0.6-1.4,3.5-0.7,6.2-0.5c5.6,0.4,12.5,0.9,17.2,1.2
				c37.3,3,80,5.4,117.2,8.3C179.2,159.2,179.6,160,180.4,160.6z"/>
		</g>
		<g>
			<path class="st2" d="M63.2,157.9c-1.2,8.1-2.7,16-3.8,24.2c-1.2-0.1-2.4-0.1-3.5-0.2c-0.6-5.1-1.1-10.3-1.7-15.4
				c-1.4,4.8-2.2,10.2-3.2,15.4c-1.3,0.1-1.9-0.4-3.1-0.4c1.2-8.1,2.4-16.3,3.8-24.2c1.5,0.2,2.3-0.2,3.8,0c0.8,4,1.5,8.1,2.5,11.9
				c0.7-3.7,1.2-7.7,1.7-11.7C60.3,157.4,62.2,157.6,63.2,157.9z"/>
			<path class="st2" d="M71,158c3.2-0.4,4.7,4.7,4.7,9.5c-0.1,5.6-2.8,16.1-7.6,15.6c-3.4-0.4-4.3-7-3.6-12.8
				C65,165.4,67.3,158.5,71,158z M69.2,176.2c2.5-1.7,4.8-10.4,2.2-12.8C68.6,164.9,66.6,173.1,69.2,176.2z"/>
			<path class="st2" d="M82.2,159.7c0.1,0,0.3,0,0.4,0c-0.6,4.4-0.8,9.2-1.1,13.9c1.4-3.2,2.2-7,3.4-10.5c1,0.1,2.5-0.1,3.1,0.4
				c0,3.9,0.4,7.4,0.8,10.9c1.4-4.3,2.5-8.9,3.5-13.6c1.2,0.2,2.5,0.3,3.5,0.6c-2,7.8-4.2,15.3-6,23.3c-1.4-0.1-2.8-0.1-4.2-0.2
				c0.1-3.9-0.2-7.4-0.4-11.1c-1.6,3.3-2.5,7.4-3.8,10.9c-1.3-0.1-2.5-0.1-3.8-0.2c0.4-8.1,0.7-16.1,1.3-23.9
				C80.1,159.9,81.3,160,82.2,159.7z"/>
			<path class="st2" d="M102.2,160.8c0.4,2.9,0.8,5.9,0.9,9.1c1.9-2.5,3.1-5.7,4.6-8.7c1.2,0.4,2.4,0.7,3.5,1.3
				c-1.4,4.1-5.8,8.1-7,12.5c-0.9,3.2-0.3,6.7-1,10.8c-1.3-0.1-2.5-0.1-3.8-0.2c2.1-9.7-0.1-16.9-1.5-24.9
				C99.3,160.8,100.6,160.7,102.2,160.8z"/>
			<path class="st2" d="M137.8,163.6c3.2-0.4,4.7,4.7,4.7,9.5c-0.1,5.6-2.8,16.1-7.6,15.6c-3.4-0.4-4.3-7-3.6-12.8
				C131.8,171,134.1,164.1,137.8,163.6z M136,181.7c2.5-1.7,4.8-10.4,2.2-12.8C135.4,170.5,133.4,178.7,136,181.7z"/>
			<path class="st2" d="M129.5,164.3c-1.7,5.3-1.4,22.1-6.3,24.4c-5,2.3-8.8-1.9-9-6.6c4-1.1,3.3,3.6,6.2,4.1
				c3.7-3.3,2.6-12,3.3-18.7c-1.7-0.4-3.7-0.6-5.7-0.7c0.4-1.2,0.9-2.3,1.1-3.7C122.8,163.3,126.2,163.8,129.5,164.3z"/>
			<path class="st2" d="M151.4,180.9c0.5,3.4,1.7,6.1,2.2,9.4c-1.5-0.1-2.6,0.2-4,0.3c-0.6-3.4-1-6.9-2-9.9c-1.1,2.5-1,6.2-1.8,9
				c-0.8,0.2-2,0-2.7,0.3c0.7-7.8,2.5-16.5,3.8-24.5c3.6-0.9,7.9,2.7,8.4,6.2C155.9,175.4,153.2,178.5,151.4,180.9z M149,169.7
				c-0.6,2.4-0.5,5.7-1.1,8.2C151.5,176.9,153.6,170.2,149,169.7z"/>
			<path class="st2" d="M162,167c-0.1,3-0.3,5.9-0.4,8.9c1.8-2.7,3.6-5.5,5.3-8.4c1.3,0.6,2.6,1.1,3.9,1.5
				c-2.4,3.5-4.8,7.2-7.4,10.5c1.2,3.9,1.7,8.3,3,12.1c-0.8,0.6-2.4,0.3-3.8,0.3c-0.5-3.3-1.2-6.4-1.8-9.6c-0.8,2.7-1.1,5.9-1.5,9
				c-1.1,0-1.8-0.5-3.1-0.4c1-7.9,1.7-16.2,2.9-23.8C159.8,166.7,161.1,167,162,167z"/>
		</g>
	</g>
	<g>
		<path class="st3" d="M150.2,34.1c0.5,0,1.1,0,1.6,0c9.4,0.8,9.5,14.7,0.8,16.1c-4.4,0.7-9.7-2.2-9.7-7.9
			C142.9,38,146.2,34.7,150.2,34.1z"/>
		<g>
			<path class="st4" d="M132.7,50.2c-0.3,3.3-0.9,6.3-1.1,9.7c-1.2-0.2-2.2-0.5-3.2-0.8c-1,13.1-1.6,26.7-2.4,40
				c1.9,0.2,4.4-0.4,6.6-0.3c-0.2,3.2-0.5,6.2-0.8,9.2c-4.5-0.6-9.3-0.9-13.7-1.6c0.6-10.9,1-21.9,1.6-32.8
				c-5.2,10.8-10.3,21.8-15.3,32.8c-5.2-9.8-10-20-14.9-30.2c-0.1,9.4,0.6,19.4,0.6,29.2c-3.8,0.2-7.7,0.4-11.1,0.5
				c0-3.1,0-6.1,0-9.2c1.7-0.4,3.3-0.8,5.2-1c-1-10.6-2.3-21-3.4-31.6c-1.5,0-3.4,0-4.2-0.2c-0.2-0.5-1.5-9.1-1.1-10
				c3.2-0.7,6.8-1.1,10.2-1.6c5.9,11,12.2,21.7,18.1,32.8c5.5-11.4,10.1-23.7,15.7-35C123.8,50.1,128.5,49.9,132.7,50.2z"/>
			<path class="st4" d="M171,101.5c0,0.3,0,0.5,0,0.8c-10.6,1.3-21.4,2.4-30,5.7c-0.3-3.1-0.7-6.2-1.1-9.2c3.5-1.2,6.6-2.7,10.2-3.9
				c-1.1-9.3-2.2-18.7-3.2-28.1c-3.9,0.5-7.5,1.3-11.1,1.9c-0.1-2.8,0.6-6.2,0.6-9.4c10.7-2.3,21.6-4.4,32.4-6.6
				c0.4,4.1,1,8.1,1.3,12.4c-3.6,0.3-7.3,0.7-11,1c0,9.3,0.5,18.2,0.5,27.4c3,0.6,6.7,0.4,10.2,0.5C170.3,96.4,170.4,99.2,171,101.5
				z"/>
			<path class="st4" d="M46.7,109.3c-0.3-2.5-0.8-4.9-1-7.6c1.3-0.3,2.3-1,3.6-1.3C47.1,91.2,45,82,43,72.8
				c-1.1-0.1-1.7,0.2-2.7,0.2c-0.7-3.1-1.7-5.7-2.3-8.9c10.5-3,20.8-6.2,31.3-9.2c0.4,3.9,0.9,7.7,1.3,11.6c-1.5,0.4-2.7,1-4.2,1.3
				c-0.4-1.1-0.3-2.6-0.6-3.7c-4.5,1.3-8.2,3.5-12.4,5c0.9,3.7,2,7.2,3.1,10.7c2.7-0.6,5.1-1.4,7.7-1.9c0.5,2.7,1.1,5.1,1.5,7.9
				c-2.6,0.2-5,0.6-7.4,1c0.4,3.8,1.6,7.7,1.6,11.3c3-0.7,6-1.4,9.4-1.8c0-2.1,0.3-3.9,0.2-6.1c1.7-0.3,3.6-0.4,5.5-0.5
				c0.2,5.2,0.5,9.3,0.8,14.4c-10.6,0.7-19.8,2.8-28.6,5.3C46.9,109.3,46.8,109.3,46.7,109.3z"/>
		</g>
		<g>
			<path class="st3" d="M131.8,49.3c-0.3,3.3-0.9,6.3-1.1,9.7c-1.2-0.2-2.2-0.5-3.2-0.8c-1,13.1-1.6,26.7-2.4,40
				c1.9,0.2,4.4-0.4,6.6-0.3c-0.2,3.2-0.5,6.2-0.8,9.2c-4.5-0.6-9.3-0.9-13.7-1.6c0.6-10.9,1-21.9,1.6-32.8
				c-5.2,10.8-10.3,21.8-15.3,32.8c-5.2-9.8-10-20-14.9-30.2c-0.1,9.4,0.6,19.4,0.6,29.2c-3.8,0.2-7.7,0.4-11.1,0.5
				c0-3.1,0-6.1,0-9.2c1.7-0.4,3.3-0.8,5.2-1c-1-10.6-2.3-21-3.4-31.6c-1.5,0-3.4,0-4.2-0.2c-0.2-0.5-1.5-9.1-1.1-10
				c3.2-0.7,6.8-1.1,10.2-1.6c5.9,11,12.2,21.7,18.1,32.8c5.5-11.4,10.1-23.7,15.7-35C122.9,49.2,127.6,49,131.8,49.3z"/>
			<path class="st3" d="M170.1,100.6c0,0.3,0,0.5,0,0.8c-10.6,1.3-21.4,2.4-30,5.7c-0.3-3.1-0.7-6.2-1.1-9.2
				c3.5-1.2,6.6-2.7,10.2-3.9c-1.1-9.3-2.2-18.7-3.2-28.1c-3.9,0.5-7.5,1.3-11.1,1.9c-0.1-2.8,0.6-6.2,0.6-9.4
				c10.7-2.3,21.6-4.4,32.4-6.6c0.4,4.1,1,8.1,1.3,12.4c-3.6,0.3-7.3,0.7-11,1c0,9.3,0.5,18.2,0.5,27.4c3,0.6,6.7,0.4,10.2,0.5
				C169.4,95.5,169.5,98.3,170.1,100.6z"/>
			<path class="st3" d="M45.8,108.4c-0.3-2.5-0.8-4.9-1-7.6c1.3-0.3,2.3-1,3.6-1.3c-2.1-9.2-4.2-18.4-6.3-27.6
				c-1.1-0.1-1.7,0.2-2.7,0.2c-0.7-3.1-1.7-5.7-2.3-8.9c10.5-3,20.8-6.2,31.3-9.2c0.4,3.9,0.9,7.7,1.3,11.6c-1.5,0.4-2.7,1-4.2,1.3
				c-0.4-1.1-0.3-2.6-0.6-3.7c-4.5,1.3-8.2,3.5-12.4,5c0.9,3.7,2,7.2,3.1,10.7c2.7-0.6,5.1-1.4,7.7-1.9c0.5,2.7,1.1,5.1,1.5,7.9
				c-2.6,0.2-5,0.6-7.4,1c0.4,3.8,1.6,7.7,1.6,11.3c3-0.7,6-1.4,9.4-1.8c0-2.1,0.3-3.9,0.2-6.1c1.7-0.3,3.6-0.4,5.5-0.5
				c0.2,5.2,0.5,9.3,0.8,14.4c-10.6,0.7-19.8,2.8-28.6,5.3C46,108.4,45.9,108.4,45.8,108.4z"/>
		</g>
	</g>
	<g>
		<g>
			<path class="st5" d="M68.8,117.8c0.3,0.7-0.3,1.2-0.6,1.6c-0.6,0.1-0.6-0.3-0.8-0.6C67.6,118.1,67.9,117.7,68.8,117.8z"/>
			<path class="st5" d="M68.8,119.7c-0.3,1.7-0.6,3.5-1,5.2c0.2,0.3,1.2-0.4,1.3,0.3c-0.2,0.8-1.9,0.7-2.6,0.5
				c0.2-1.8,0.8-3.1,1-4.8c-0.4-0.4-1.1,0.2-1.8,0C66.2,119.9,67.5,119.8,68.8,119.7z"/>
		</g>
		<g>
			<path class="st5" d="M75.3,111.9c0.3,0,0.5,0,0.8,0c4.2,1.1,9.8,0.1,13.7,1.3c-0.7,0.6,0.3,3-1.1,2.9c-0.5-0.6-0.1-2-1-2.3
				c-1.4-0.5-3.6-0.4-5-0.5c0.6,3-1.7,9.5-0.5,12.1c0.5,1,1.5,0.6,1.9,1.6c-1.7,0.2-4.4,0.4-5.3-0.6c0-0.8,1.7,0.1,1.8-0.6
				c0.9-3.6,0.9-8.2,1.1-12.4c-1.6-0.3-3.5-0.2-5.2-0.3c-1,0.1-0.2,1.9-1.6,1.6C75,114.2,74.9,112.4,75.3,111.9z"/>
			<path class="st5" d="M93.8,126.6c0.1,0.4,0.8,0.1,1,0.5c-0.5,0.9-1.6,0.7-2.7,0.6c-0.2-0.9,0.5-0.7,0.8-1.1
				c-2.2,1.2-7.1,0.2-5.8-3.6c1.1-1.4,3.9-2.4,6.1-1.3c-0.2-3-3.7-1.6-5.3-0.8c0.3-1.8,2.1-2.2,4.5-1.9
				C95.4,120.1,93.9,123.4,93.8,126.6z M92.8,124.2c-0.1-1.8-2.8-2.9-4.2-1.5c-0.4,1.2-0.1,2.6,0.5,3.4
				C91.1,127,92.9,125.8,92.8,124.2z"/>
			<path class="st5" d="M100.4,119.8c0.2,1-0.8,1.5-1.5,1.1C98.9,120.1,99.4,119.8,100.4,119.8z"/>
			<path class="st5" d="M105.9,120.3c-0.2,0.6-1.1,0.5-1,1.5c0.7-0.4,3.1-2,4.4-0.5c0.3,1.7-0.2,3.7-0.2,5.7c0,0.2,0.8-0.1,1.3,0
				c-0.4,1.1-1.4,1.5-2.6,1.8c-0.1-2.4,1.2-5.2-0.2-6.9c-2.9-0.1-3.1,2.4-3.1,5.2c0.3,0.4,1.4,0,1.3,0.8c-0.9,0.4-3.1,0.7-3.7,0
				c0-0.6,0.7-0.6,1.3-0.6c0.4-1.9-0.3-4,0.2-6c-0.5-0.3-1.6-0.1-2.4-0.2C101.7,119.7,104.3,120.6,105.9,120.3z"/>
			<path class="st5" d="M115.1,121.8c0.1,0.6-0.8,0.2-1.1,0.3c0.1,2.7-0.6,5.3,1.8,5.7c2.1-0.5,0.6-3.7,1.1-5.7
				c-0.1-0.4-0.7-0.2-0.8-0.5c0.1-0.6,1.9-0.3,2.3-0.2c-1.1,3.3,0.4,7.3-0.5,10.7c-1.9,1.4-5.8,0.5-4.7-2.4c0.3,0,0.6,0,1,0
				c0.5,0.5-0.1,0.8-0.3,1.1c0.7,0.4,1.4,0.9,2.1,1.3c0.8-0.8,1.4-2,1.1-3.9c-0.3-0.3-0.7,0.7-1.3,0.6c-3.8,0.2-2.8-4.1-3.1-6.8
				c-0.1-0.3-0.8-0.1-1-0.5C112.5,121,114.1,121.4,115.1,121.8z"/>
			<path class="st5" d="M100.1,121.8c-0.5,3.6,0.6,8.6-1,11.1c-4,1.4-3.3-2.6-3.9-4.8c1.2,0,1.7,0.5,1.9,1.5
				c-1.1-0.3-0.5,1.3-0.6,1.9c0.4,0.3,1.5,0.2,1.9,0c0.5-2.6,0.6-5.6,0.8-8.6c-0.5-0.3-0.9,0.6-1.8,0.3
				C98,122.4,98.7,121.8,100.1,121.8z"/>
		</g>
		<g>
			<path class="st5" d="M125.4,116.4c2.1,0.1,4,0.5,6.1,0.5c-0.1,1-1.7,0.6-2.4,1c-0.4,1.6,0.1,4-0.3,5.7c2.3-1.8,5.1-3.1,6.9-5.3
				c0.2-0.7-1-0.2-0.8-1c1.4,0.1,3.3-0.3,4.2,0.3c-2.9,1.6-5.2,3.9-8.1,5.5c2.2,3,3.7,6.6,7.3,8.2c-0.6,0.9-3.5,0.3-4.5,0
				c0-0.6,0.6-0.7,1.3-0.6c-1.5-2.3-3.4-4.3-4.5-6.9c-0.7,0.3-1.4,0.7-1.8,1.3c0,2.5-0.8,5.4,1.6,5.8c-1.2,0.8-3.9,0.3-5.5,0
				c0.4-0.6,0.8-1.2,1.9-1c1.1-3.3,0.9-8.1,1-12.1C127.2,117.1,125.7,117.4,125.4,116.4z"/>
			<path class="st5" d="M142.4,117.4c-0.5,4.1-1.1,8.2-1.3,12.8c0.4,0.3,1.1-0.4,1.8-0.3c-0.4,1.2-1.8,1.4-3.1,1.8
				c0-4.5,1.2-9,1.6-13.6c-0.8,0-1.4,0.4-2.1,0C139.5,117,141.3,117.5,142.4,117.4z"/>
			<path class="st5" d="M148,124.7c-0.3,0.4-0.6,0.7-1.3,0.6c0.2,1.8-0.4,4.4,0.5,5.5c3.2,0.6,2.8-4.5,1.8-6.1
				c0.9,0.1,2.1-0.2,2.7,0.2c0,0.5-0.7,0.3-1,0.6c0.1,1.8-0.3,3.1-0.2,4.8c0.3,0.2,1-0.5,1.5,0.2c-0.1,0.8-1.1,0.7-1.6,1.1
				c-1.2-0.5-1.6,0.1-2.7,0c-2.9-0.3-2.5-3.1-2.1-6.3c-0.2-0.5-1.4,0-1.5-0.6C145.8,124.5,146.7,124,148,124.7z"/>
			<path class="st5" d="M156.3,120.6c-0.2,2.2-0.3,4.4-0.6,6.5c1-0.4,4.5-1,5.5,0.3c1.3,3.3-1.9,6.4-5.3,4.5
				c-0.5,0.1,0.4,0.2,0.2,0.6c-1.7-0.1-2.8,0.2-3.9-0.5c0.1-0.6,1-0.4,1.3-0.8c0.6-3.2,1.4-6.3,1.6-9.8c0-0.7-1.6,0.1-1.6-0.6
				C153.6,119.8,155.5,120.6,156.3,120.6z M160.3,130c0.3-2-2.3-3.5-4-2.1c-0.6,0.9-0.3,2.4,0.2,3.2
				C158,132.2,160.1,131.5,160.3,130z"/>
		</g>
		<g>
			<path class="st5" d="M103.9,135.5c-0.1,0.7-1.6,0-1.9,0.5c0.4,3.4-0.7,6.6-0.3,10.5c0.2,0.4,1.2-0.1,1.5,0.3
				c-0.3,0.3,0.1,0.4,0,1c-1.3,0.1-2.3-0.1-3.4-0.2c-0.2-0.8,0.7-0.4,0.6-1.1c-2.5,0.9-6.9,0-5.8-3.7c1.1-1.3,3.6-2.4,6-1.5
				c0.2-1.5,0.8-4.8-0.2-6C101.2,134.4,102.8,135.3,103.9,135.5z M96.7,145.7c1.4,1.3,3.5,0.1,3.7-1.3c0.3-1.8-1.7-2.7-2.6-2.6
				C95.8,142,95.4,144.5,96.7,145.7z"/>
			<path class="st5" d="M65.5,138.2c-0.3,0.4-0.6,0.7-1.3,0.6c0.2,1.8-0.4,4.4,0.5,5.5c3.2,0.6,2.8-4.5,1.8-6.1
				c0.9,0.1,2.1-0.2,2.7,0.2c0,0.5-0.7,0.3-1,0.6c0.1,1.8-0.3,3.1-0.2,4.8c0.3,0.2,1-0.5,1.5,0.2c-0.1,0.8-1.1,0.7-1.6,1.1
				c-1.2-0.5-1.6,0.1-2.7,0c-2.9-0.3-2.5-3.1-2.1-6.3c-0.2-0.5-1.4,0-1.5-0.6C63.2,138.1,64.2,137.6,65.5,138.2z"/>
			<path class="st5" d="M91,138.9c-0.7,0.5-0.6,1.7-1,2.6c1-0.1,1.3-2.5,2.6-2.6c1.6,0,2.1,3.4,0,3.7c-0.7,0-0.6-0.8-0.8-1.3
				c-0.8,1.4-2.2,2.2-2.1,4.5c0.4,0.6,1.6,0.5,1.6,1.5c-1.3-0.2-3-0.1-4.2-0.3c1.8-1.2,1.7-4.2,1.9-6.9c-0.2-0.5-1.4,0.1-1.6-0.3
				C88,138.8,89.8,138.7,91,138.9z M92.3,140.7c0.2,0,0.4,0,0.6,0c0-0.4,0-0.6-0.3-0.6C92.6,140.3,92.2,140.2,92.3,140.7z"/>
			<path class="st5" d="M72.6,139.1c0.4,0.5-0.2,1,0,1.8c1.5-0.7,4.1-0.7,5.2,0.3c0.8,3.1-0.6,5.5-4,5c-0.6-0.1-1-0.3-1.6-0.6
				c-0.5,2.6-0.3,4.9-1,7.4c0.4,0.3,1.1,0.3,1.8,0.3c0.1,0.6,0,0.6,0.2,1.3c-1-0.6-3.4,0.1-4-0.8c2.4-2.9,1.3-9.2,2.4-13.4
				c-0.2-0.3-0.8,0.4-1.5,0.2C70.5,139.7,71.4,139.2,72.6,139.1z M73.4,145.2c1.3,0.9,3.3,0.1,3.6-1.3c0.3-1.9-1.5-2.9-2.9-2.6
				C72.1,141.7,72.2,144.3,73.4,145.2z"/>
			<path class="st5" d="M86,142.6c-1.5,0.4-3.7,0.7-5.5,1.3c0,1.4,2.1,1.8,3.2,1.1c0.4-0.4-0.2-0.3-0.2-0.8c0.9,0.1,2.3-0.3,2.7,0.3
				c-2.1,1.8-6,2.4-7.7-0.3c0.4-0.5,0.2-1.1,0.3-2.1c1-1.5,3.8-2.3,6.1-1.5C85.3,141.4,86,141.6,86,142.6z M80.4,143.4
				c1.3-0.5,3-0.6,3.9-1.5C83,140.7,80,140.6,80.4,143.4z"/>
			<path class="st5" d="M111.8,141.2c-1.6,2.2-4.1,3.5-6,5.5c1.2,0.4,2.7-0.2,4.2,0c0.4-0.3,0.1-1.3,1-1.1c0.5,0.3,0.5,1.7,0.3,2.3
				c-2.5,0.4-5.1-0.3-7.9-0.2c0.2-1.7,1.8-2.4,2.9-3.2c1.2-0.9,2.4-1.7,3.4-2.7c-2.1-0.4-3.8,0-5.5,0.5
				C104.6,139.1,109.2,141.3,111.8,141.2z"/>
			<path class="st5" d="M115.4,140.3c0.3,0.7-0.3,1.2-0.6,1.6c-0.6,0.1-0.6-0.3-0.8-0.6C114.1,140.7,114.5,140.2,115.4,140.3z"/>
			<path class="st5" d="M129.1,142c0,0.9-0.7,1-1.6,1c0.2,1.4,0.5,2.7,0.6,4.2c0.9-1.8,2.1-3.3,2.4-5.7c2,0.5,1.1,3.6,1.9,5.5
				c0.8-1,0.8-2.8,1.6-3.9c-0.1-0.5-0.8-0.3-1.1-0.5c-0.1-0.5,0.5-0.4,0.3-1c1.5,0.2,3,0.6,3.7,1.6c-0.3,0.3-0.9,0.1-1.3,0
				c-1.2,1.8-1.5,4.5-2.7,6.3c-0.9,0.1-0.4-1.1-1.5-0.8c-0.1-1.5-0.4-3-0.5-4.5c-1.2,1.5-1.5,3.7-2.7,5.2c-0.5,0.1-0.4-0.2-0.8-0.2
				c-0.5-2.1-0.8-4.4-1.3-6.5c-0.3-0.4-1.4,0-1.3-0.8C127.1,141.7,127,141.6,129.1,142z"/>
			<path class="st5" d="M115.4,142.3c-0.3,1.7-0.6,3.5-1,5.2c0.2,0.3,1.2-0.4,1.3,0.3c-0.2,0.8-1.9,0.7-2.6,0.5
				c0.2-1.8,0.8-3.1,1-4.8c-0.4-0.4-1.1,0.2-1.8,0C112.8,142.5,114.1,142.4,115.4,142.3z"/>
			<path class="st5" d="M124,144.9c-1.5,0.4-3.7,0.7-5.5,1.3c0,1.4,2.1,1.8,3.2,1.1c0.4-0.4-0.2-0.3-0.2-0.8
				c0.9,0.1,2.3-0.3,2.7,0.3c-2.1,1.8-6,2.4-7.7-0.3c0.4-0.5,0.2-1.1,0.3-2.1c1-1.5,3.8-2.3,6.1-1.5
				C123.2,143.6,124,143.9,124,144.9z M118.3,145.7c1.3-0.5,3-0.6,3.9-1.5C121,142.9,117.9,142.9,118.3,145.7z"/>
			<path class="st5" d="M152.4,143.6c-1.6,2.2-4.1,3.5-6,5.5c1.2,0.4,2.7-0.2,4.2,0c0.4-0.3,0.1-1.3,1-1.1c0.5,0.3,0.5,1.7,0.3,2.3
				c-2.5,0.4-5.1-0.3-7.9-0.2c0.2-1.7,1.8-2.4,2.9-3.2c1.2-0.9,2.4-1.7,3.4-2.7c-2.1-0.4-3.8,0-5.5,0.5
				C145.1,141.5,149.7,143.7,152.4,143.6z"/>
			<path class="st5" d="M156.7,143.9c0.1,0.6-0.8,0.2-1.1,0.3c0.1,2.7-0.6,5.3,1.8,5.6c2.1-0.5,0.6-3.7,1.1-5.6
				c-0.1-0.4-0.7-0.2-0.8-0.5c0.1-0.6,1.9-0.3,2.3-0.2c-1.1,3.3,0.4,7.3-0.5,10.7c-1.9,1.4-5.8,0.5-4.7-2.4c0.3,0,0.6,0,1,0
				c0.5,0.5-0.1,0.8-0.3,1.1c0.7,0.4,1.4,0.9,2.1,1.3c0.8-0.8,1.4-2,1.1-3.9c-0.3-0.3-0.7,0.7-1.3,0.6c-3.8,0.2-2.8-4.1-3.1-6.8
				c-0.1-0.3-0.8-0.1-1-0.5C154.1,143.1,155.8,143.5,156.7,143.9z"/>
			<path class="st5" d="M166.2,143.6c-0.2,0.6-1.1,0.5-1,1.5c0.7-0.4,3.1-2,4.4-0.5c0.3,1.7-0.2,3.7-0.2,5.7c0,0.2,0.8-0.1,1.3,0
				c-0.4,1.1-1.4,1.5-2.6,1.8c-0.1-2.4,1.2-5.2-0.2-6.9c-2.9-0.1-3.1,2.4-3.1,5.2c0.3,0.4,1.4,0,1.3,0.8c-0.9,0.4-3.1,0.7-3.7,0
				c0-0.6,0.7-0.6,1.3-0.6c0.4-1.9-0.3-4,0.2-6c-0.5-0.3-1.6-0.1-2.4-0.2C162.1,143,164.7,143.8,166.2,143.6z"/>
			<path class="st5" d="M143.5,143.7c-0.1,1,0.1,2.2-0.8,2.4c-1.4-2.5-4.2-0.4-3.7,1.8c0.3,1.5,3.3,2.5,3.6,0c0.7,0.1,0.2,1.3,1.3,1
				c-1.1,1.8-5.3,2-6.1-0.2c-0.5-3.7,1.6-4.8,5-4.5C142.6,143.7,143,143.7,143.5,143.7z"/>
			<path class="st5" d="M58.9,131.8c0.6,0,0.1-1,0.8-1c0.7,0.5,0.4,3.8-0.3,4.4c-0.8-2-1.9-4.2-4.4-3.9c-2,0.2-2.5,2.3-3.1,4.4
				c0.2,0.4,1.1,0.4,0.3,0.8c2.4,2.6,9.6,0.5,8.7,6.5c-0.4,0.2-1,1.7-1.6,2.1c-2.2,1.6-6,0.6-7.4-1.3c-0.4,0.2-0.1,1.2-0.8,1.1
				c-0.9-1-0.4-3.8-0.2-4.8c0.9,0.2,1.1,1.2,1.1,2.3c0.7,1.3,2,2.7,4.4,2.3c0.5-0.1,0.3,0.3,0.2,0.5c2.6-0.2,2.6-5,1-6.3
				c-2.8-0.4-5.7,0.2-6.9-2.3C49.8,131.2,55.6,129.2,58.9,131.8z"/>
		</g>
	</g>
	<g>
		<g>
			<path class="st6" d="M166.6,35.6c-0.1-0.1-0.1-0.1-0.2-0.2c-0.4-0.6-1-1.1-1.7-1.3c0.2-0.2,0.5-0.5,0.6-0.8c0,0,0-0.1,0-0.1
				c0,0,0,0,0.1-0.1c0.1-0.1,0.2-0.2,0.3-0.3c0-0.4,0-0.7-0.1-1.1c-0.1-0.3-0.1-0.7-0.2-1c0,0,0-0.1,0-0.1c0,0,0,0,0,0
				c0,0,0-0.1,0-0.1c0,0,0,0,0,0c-0.1-0.1-0.2-0.2-0.3-0.3c-0.1-0.2-0.2-0.4-0.4-0.6c-0.3-0.3-0.7-0.5-1-0.7
				c-0.1-0.1-0.2-0.1-0.3-0.2c-0.2-0.1-0.3-0.3-0.5-0.4c-0.5-0.4-1.1-0.3-1.6,0c-0.2,0-0.3,0-0.5,0.1c0.5-1.1,0.8-2.3,0.1-3.1
				c-0.6-0.8-1.2-1.2-1.9-1.4c-0.2-0.1-0.4-0.3-0.6-0.3c-1.5-0.5-2.9,0.2-3.8,1.4c-0.1,0.1-0.1,0.1-0.1,0.2
				c-0.1,0.1-0.3,0.2-0.4,0.3c0-0.6-0.1-1.2-0.2-1.7c-0.9-2.9-4.9-1.9-6.4-0.1c-0.1,0.1-0.2,0.3-0.3,0.4c-3.1-1.3-7.2,0.3-6.2,4.3
				c-2.3-0.7-5.1,1.7-4.4,4.2c0.2,0.6,0.5,1,0.8,1.5c0,0-0.1,0.1-0.1,0.1c-0.4,0.5-0.4,0.5-0.1,0.2c-0.2,0.2-0.3,0.3-0.5,0.5
				c-0.3,0.4-0.7,0.8-1,1.3c-0.3,0.6-0.5,1.2-0.5,1.9c-0.1,1.2,0.6,2.6,1.7,3.2c0.2,0.1,0.4,0.1,0.6,0.1c-0.8,1.2-0.8,2.9-0.1,4.2
				c0.8,1.6,2.1,2.2,3.8,2c-0.6,2.1,0.2,5.2,2.9,5c1.5-0.1,2.6-0.7,3.5-1.8c0,0.1,0.1,0.1,0.1,0.2c-0.1,0.7,0.2,1.2,0.6,1.7
				c0.1,0.2,0.2,0.4,0.4,0.5c0.9,0.9,2.1,0.9,3.2,0.4c0.1,0,0.2,0,0.3-0.1c0.3-0.1,0.6-0.3,0.8-0.4c0.6-0.4,1.1-1,1.3-1.9
				c0-0.2,0-0.4,0-0.6c1.1,1.5,2.8,2.4,4.6,1.5c0.2-0.1,0.3-0.2,0.5-0.3c0.5-0.1,1-0.5,1.3-1c0.1-0.1,0.1-0.2,0.2-0.3
				c0.6-0.9,0.5-1.9,0.1-2.9c-0.1-0.2-0.2-0.3-0.3-0.4c0-0.1,0-0.2-0.1-0.2c0.1,0,0.1,0.1,0.2,0.1c0.8,0.7,1.8,0.9,2.7,0.3
				c0.1-0.1,0.2-0.1,0.3-0.2c0.4-0.2,0.6-0.5,0.8-0.8c1-1.1,1.3-3,0.5-4.6c0,0,0,0,0-0.1c0-0.1,0-0.1,0-0.2c0.7,0,1.3-0.2,1.9-0.8
				C168.2,39.3,167.6,36.9,166.6,35.6z"/>
		</g>
		<ellipse class="st7" cx="151.1" cy="37.9" rx="13.7" ry="13.4"/>
		<path class="st2" d="M162.8,37.9c0,6.5-5.2,11.7-11.7,11.7c-6.5,0-11.7-5.2-11.7-11.7c0-6.5,5.2-11.7,11.7-11.7
			C157.6,26.2,162.8,31.4,162.8,37.9z"/>
		<g>
			<path class="st8" d="M145.5,38c0-0.3,0-0.6-0.1-0.9c0-0.1-0.1-0.2-0.2-0.2c0-0.2,0-0.5-0.2-0.7c-0.8-0.8-1.7,0.3-2.4,1.4
				c-0.4,0.5-0.7,1.1-0.8,1.8c0,0,0,0,0,0c0,0.1-0.1,0.1-0.1,0.2c-0.3,0.5-0.2,1.1-0.2,1.7c0,0.5,0.6,0.6,0.8,0.2
				c0.1-0.1,0.1-0.2,0.2-0.3c0.1,0,0.2,0,0.2-0.1c0.2-0.2,0.4-0.4,0.5-0.6c0,0,0,0,0,0c0.4-0.5,0.6-1,0.8-1.5c0-0.1,0.1-0.2,0.1-0.3
				c0.1-0.1,0.1-0.2,0.2-0.3c0.1-0.1,0.2-0.3,0.3-0.5c0,0,0,0,0,0c0,0.1,0,0.1,0.1,0.2c0,0.1,0,0.1,0,0.2c0,0.1,0,0.2,0,0.3
				c0,0.2,0.1,0.3,0.3,0.4c0.1,0,0.1,0,0.2,0c0,0,0,0,0,0l0,0c0.2,0,0.3-0.2,0.3-0.4c0-0.1,0-0.2,0-0.3
				C145.7,38.1,145.6,38,145.5,38z"/>
			<g>
				<path class="st5" d="M145.3,39.4c-0.6,0.1-0.2-0.7-0.6-0.9c-0.8,1.3-1.5,2.8-2.8,3.5c-1.3-1.5,0.7-6.1,2.8-6.4
					c0,0.1,0.2,0.1,0.3,0.1C145.5,36.6,146,38.5,145.3,39.4z M141.8,40c0,0.6-0.4,1.2,0,1.6c1.8-0.6,2.1-2.8,3.1-4.1
					c0.3,0.3,0.1,1.1,0.4,1.3c0-1.1,0-2.2-0.7-2.7C144.1,37.7,143.3,40.4,141.8,40z M142.4,40c0.5-1.2,1.8-2.4,1.6-3.7
					C143.2,37.2,142.1,38.6,142.4,40z"/>
			</g>
		</g>
		<g>
			<path class="st8" d="M156.3,35.6c0-0.3,0-0.6,0.1-0.9c0-0.1,0.1-0.2,0.2-0.2c0-0.2,0-0.5,0.2-0.7c0.8-0.8,1.7,0.3,2.4,1.4
				c0.4,0.5,0.7,1.1,0.8,1.8c0,0,0,0,0,0c0,0.1,0.1,0.1,0.1,0.2c0.3,0.5,0.2,1.1,0.2,1.7c0,0.5-0.6,0.6-0.8,0.2
				c-0.1-0.1-0.1-0.2-0.2-0.3c-0.1,0-0.2,0-0.2-0.1c-0.2-0.2-0.4-0.4-0.5-0.6c0,0,0,0,0,0c-0.4-0.5-0.6-1-0.8-1.5
				c0-0.1-0.1-0.2-0.1-0.3c-0.1-0.1-0.1-0.2-0.2-0.3c-0.1-0.1-0.2-0.3-0.3-0.5c0,0,0,0,0,0c0,0.1,0,0.1-0.1,0.2c0,0.1,0,0.1,0,0.2
				c0,0.1,0,0.2,0,0.3c0,0.2-0.1,0.3-0.3,0.4c-0.1,0-0.1,0-0.2,0c0,0,0,0,0,0l0,0c-0.2,0-0.3-0.2-0.3-0.4c0-0.1,0-0.2,0-0.3
				C156.2,35.8,156.2,35.7,156.3,35.6z"/>
			<g>
				<path class="st5" d="M156.8,33.5c0.1,0,0.3,0,0.3-0.1c2.1,0.3,4.1,4.8,2.8,6.4c-1.3-0.8-2-2.2-2.8-3.5c-0.3,0.2,0,1-0.6,0.9
					C155.9,36.1,156.4,34.3,156.8,33.5z M157.3,33.8c-0.7,0.4-0.7,1.5-0.7,2.7c0.4-0.2,0.2-1,0.4-1.3c1,1.4,1.3,3.5,3.1,4.1
					c0.4-0.5,0-1.1,0-1.6C158.6,38,157.8,35.3,157.3,33.8z M157.9,33.9c-0.2,1.3,1.1,2.5,1.6,3.7C159.7,36.2,158.6,34.9,157.9,33.9z
					"/>
			</g>
		</g>
		<g>
			<path class="st9" d="M151.1,33.1c-0.1-0.5,0.7-0.1,0.6-0.6c-0.6-0.3-1.7-0.2-1.8,0.4c1.1,3.7,7.4-1.8,2.4-2.5
				c-2.6-0.4-4.6,1.8-4.3,3.8c0.7,4,10.7,2.4,9.9,8.3c-0.3,2-2.8,3.4-5.3,3.5c-3.2,0.1-8.1-0.5-6.5-4c0.3-0.6,1.1-1.1,2.7-1
				c0.5,0.3,1.1,2-0.3,1.8c-0.8,0,0.4-0.7-0.1-0.9c-0.1-0.1-0.4-0.1-0.4-0.3c-0.8,0.1-1.2,0.5-1.2,1c0.2,2.3,7.7,0.8,8-0.9
				c-1.9-3.6-7.7-3.2-9.2-7.2c0-1.3,0.1-2.3,0.6-3.1c1.4-2.1,9.2-3.7,9.8-0.3c0.7,3.7-6.8,5.3-6.6,1.9
				C149.3,30.4,154.1,32.7,151.1,33.1z"/>
		</g>
		<path class="st5" d="M154.3,24.8c1.7-2.4,8.2-1.9,7.1,3.1c3,0,6,3.6,3.7,6.1c2.5,1,4.7,7.2,0.1,7.5c1.7,3-0.5,7.5-4.1,6.1
			c1.9,4.4-4.1,6.3-6.5,3.8c-0.5,3.7-6.9,3.6-7.2-0.1c-2.3,2.9-8.1,1.2-6.5-3.5c-3.3,0.1-4.9-2.8-3.8-6.1c-3-0.8-2.3-6.2-0.1-7.4
			c-1.7-2.7-0.2-6.8,3.5-6.4c-0.4-3.2,3.6-6.3,6.6-4.1C148.4,21.1,154.4,20.6,154.3,24.8z M147.5,24.2c0.2,0.4,0.7,1.2,0.3,1.8
			c-0.8,0.4-1-0.9-0.9-1.9c-2.7-1.6-6.3,0.5-6.1,3.7c0.5,0.4,1.9,1.1,1,1.9c-0.8,0-0.9-0.8-1.2-1.3c-3.6-0.7-5.2,3.2-3.4,5.6
			c0.7-0.1,1.4-0.4,1.5,0.4c-0.2,0.6-1.2,0.2-1.6,0.1c-2,1.1-2.8,5.9,0,6.6c0.7,0.1,1.2-1.1,1.8-0.3c-0.1,0.8-1.2,0.6-1.6,1
			c-0.9,2.9,0.4,5.7,3.8,5.2c0.2-0.4,1.1-1.2,1.5-0.4c-0.1,0.7-0.8,0.8-1.3,1c-1.5,4.6,4.1,6.1,5.8,3c0.1-0.9,0-2,0.9-2.1
			c0.9,0.7-0.2,1.7-0.3,2.4c0.3,3.4,6.4,3.8,6.5,0c-0.4-0.4-1-1.7,0-1.9c0.6,0.1,0.4,1.1,0.4,1.8c2.1,2.8,8.3,0.6,5.9-3.5
			c-0.3-0.3-1.3-0.5-0.9-1.2c1.2,0.3,1.2,1.2,2.4,1.3c2.7,0.3,4.4-3.2,2.8-5.6c-0.4-0.3-1.1-0.3-1.2-0.9c0.5-0.6,1,0.2,1.6,0.3
			c3.9-0.5,2-5.9-0.3-6.8c-0.7,0-1.5,0.7-1.8-0.1c0.2-0.5,0.9-0.5,1.6-0.4c2.1-2.1-0.8-5.8-3.4-5.3c-0.7,0.1-0.7,1-1.5,0.7
			c-0.5-0.7,0.5-1,1-1.2c0-0.7,0-1.4,0-2.1c-0.6-1.5-1.7-2.5-3.5-2.4c-2,0.1-2.6,1.7-3.7,2.5C155.8,21.8,148.4,20.6,147.5,24.2z
			 M147.7,25.7c0-0.4,0-0.8-0.3-0.9C147.5,25.1,147.1,25.8,147.7,25.7z"/>
	</g>
	<g>
		<g>
			<path class="st10" d="M128.6,19.9c-0.8,0.6-2.2,0.6-3.2,1c-0.6-2.3-1.5-4.3-2.2-6.4c-3.4,0-2.2,4.5-2.5,7.7c-0.6,0.5-2,0.2-3,0.2
				c-0.1-7,0.5-13.3,0.5-20.3c1.2-0.2,3-0.9,4-0.5C124.2,7.8,126.3,14,128.6,19.9z M121,12.2c0.9,0.2,1.2-0.3,2-0.2
				c-0.4-2-0.3-4.4-2-5.2C121,8.6,121,10.4,121,12.2z"/>
			<path class="st10" d="M107.9,3.3c0.1,2.5,0.5,4.8,0.5,7.4c0.6,0.8,1.4-1.3,2-0.5c0.1,0.9,0.6,1.4,0.7,2.2
				c-0.8,0.4-1.3,1.1-2.2,1.5c-0.2,2,0.2,3.4,0.2,5.2c1.7,0,3.5,0,5.2,0c0.2,1.2,0.3,2.5,0.2,4c-2.5,0.3-5.1,0.5-7.9,0.5
				c-0.5-2.1-0.5-4.6-0.7-6.9c-0.9-0.3-0.7,0.6-1.5,0.5c-0.2-1.7,0.1-3.1,1-3.7c0-3.4-0.5-6.2-0.7-9.4
				C105.7,3.7,106.7,3.5,107.9,3.3z"/>
			<path class="st10" d="M94.8,5.8c8.6-1.4,9.6,17.2,2.2,18C88.9,24.8,86.8,7.1,94.8,5.8z M96.5,19.6C99.8,19.1,99,7.5,95,8.7
				C91.7,9.8,92.6,20.2,96.5,19.6z"/>
			<path class="st10" d="M86.6,6.8c-0.4,1.7-1.3,3.1-2,4.7c-0.5,1.4-1.8,3.5-1.7,4.7c0.1,3.2,5.7,6,6.4,9.1c-1,0.4-1.9,0.9-3,1.2
				c-1.6-2.6-3.5-4.9-5.4-7.2c-0.3,1.8,0.3,5,0.5,7.2c-1,0-2,0-3,0c-0.7-6.1-1.5-12.2-2-18.5c1-0.3,1.8-0.8,3-1c0,2.8,0.8,4.8,1,7.4
				c1.9-1.9,2.3-5.3,3.5-7.9C84.8,6.6,86.1,6.3,86.6,6.8z"/>
			<path class="st10" d="M66.9,9.2c9.4-2.1,10.1,17.9,2,18C61.3,27.4,59.6,10.8,66.9,9.2z M68.8,23.3c3.7-0.3,2.6-12.4-1.5-10.9
				C64.1,13.6,65.4,23.6,68.8,23.3z"/>
			<path class="st10" d="M52,11.5c9.1-1.9,9.8,17.8,2,18C46.4,29.7,44.6,13,52,11.5z M54,25.5c3.6-0.5,2.3-12.4-1.7-10.9
				C49.2,15.9,50.3,26.1,54,25.5z"/>
			<path class="st10" d="M35.9,32c-1.2-5.7-2.2-12.9-2.5-18.8c0.2,0,0.3,0,0.5,0c6.2-1.6,10.5,4,11.1,8.9C45.8,28,41.5,31,35.9,32z
				 M37.9,27c4.5-1.3,4.6-10-1-10.1C37.2,20.3,37.5,23.7,37.9,27z"/>
		</g>
		<g>
			<path class="st11" d="M115.3,44.3c-1.3,0.1-2.2,0.6-3.5,0.7c-0.6-2.3-1.7-4.2-2.5-6.4c-3.2,0-2.4,4-2.7,6.9
				c-0.8,0.5-1.9,0.6-3.2,0.5c0-6.7,0.5-12.8,0.5-19.5c1.1,0.2,2.3-1.1,3.5-0.7c1.8,0.5,3.4,7.2,4.2,9.1
				C113.2,38.9,114.4,41.7,115.3,44.3z M106.9,37.1c1.1-0.1,1.8-0.6,2.7-1c-1-1.6-0.9-4.2-2.7-4.9C106.9,33.2,106.9,35.2,106.9,37.1
				z"/>
			<path class="st11" d="M100.2,27.5c0,1,0,2,0,3c-0.5,0.5-1.8,0.2-2.7,0.2c0.3,5.3,0.8,10.6,1.5,15.6c-1.2-0.1-1.9,0.4-3.2,0.2
				C95.1,41.4,95,35.8,94,31c-1.2,0.1-2.3,0.4-3.7,0.2c0-1,0-1.8-0.2-2.5C93.5,28.4,96.7,27.8,100.2,27.5z"/>
			<path class="st11" d="M84.6,28.7c2.4,6.2,4.9,12.2,7.2,18.5c-1.1,0.1-2.2,0.3-3,0.7c-1.4-1.8-1.8-4.4-3-6.4
				c-1.1-0.1-1.3,0.7-2.2,0.7c-0.2,2.1-0.3,4.1-0.5,6.2c-1,0.1-1.9,0.4-3,0.5c0-6.5-0.2-13.3,0.2-19.5
				C81.9,29.3,82.9,28.7,84.6,28.7z M83.2,38.9c0.7,0.5,2.2,0,2.5-0.7c-1.1-1.1-0.9-3.4-2.2-4.2C83.3,35.4,83.5,37.4,83.2,38.9z"/>
			<path class="st11" d="M44.1,30.5c1-0.1,1.2,0.4,2.2,0.2c-0.5,1.4-1.1,2.7-3.2,2.5C43.5,32.3,44,31.6,44.1,30.5z"/>
			<path class="st11" d="M74,31.2c1.5,4.9,1.5,12.5,2,17.5c-1.1,0-2.2-0.1-3,0.2c-0.4-5.9-1.1-11.6-1.7-17.3
				C71.9,31.2,73.4,31.6,74,31.2z"/>
			<path class="st11" d="M64.6,31.7c0.9,0,1.8,0,2.7,0c-0.4,6-1.1,11.6-1.2,17.8c-0.6,0.5-2,0.2-3,0.2c-0.9-3.7-2-7.2-3.5-10.4
				c-1,3.3-1.1,7.5-1.7,11.1c-1.2-0.2-1.6,0.4-2.7,0.2c-1.5-5.7-2.9-11.4-4.4-17c0.8-0.4,2.1-0.4,2.7-1c1.3,3.4,1.8,7.6,2.7,11.4
				c1-2.9,0.9-6.9,1.2-10.4c1.2,0,1.9-0.4,3-0.5c1.1,3.2,2,6.5,3.5,9.4C64.5,39.3,64.5,35.4,64.6,31.7z"/>
			<path class="st11" d="M47.3,34.3c-0.3,1,0.2,1.8-0.2,2.8c-2.5,0-4.8,0.5-4.9,2.5c-0.3,3.8,6.4,3.7,7.7,6.9
				c1.5,3.9-2.4,7.4-7.7,6.2c-0.4-0.6,0.1-2-0.1-3.1c1.9,0.1,3-0.4,3.7-1.4c-0.9-4-7-4.2-6.9-9.1C39,36,43.4,32.5,47.3,34.3z"/>
		</g>
	</g>
</g>
</svg>
